<svg style="display: none;" id="icons" xmlns="http://www.w3.org/2000/svg"><symbol id="icons-search" viewBox="0 0 16 16"><path d="M15.707 14.292l-3.106-3.105A6.961 6.961 0 0014 7a7 7 0 10-7 6.999 6.958 6.958 0 004.187-1.398l3.106 3.105a.999.999 0 101.414-1.414M7 11.999A5 5 0 117 2a5 5 0 110 9.999"/></symbol><symbol id="icons-arrow-down" viewBox="0 -1.5 10 10"><path d="M3.733 7L.001 1.249 2.485.448 5 3.817 7.515.448 10 1.249l-3.729 5.75L3.733 7z"/></symbol><symbol id="icons-criminality" viewBox="0 0 64 64" xmlns:xlink="http://www.w3.org/1999/xlink"><path d="M60 0H4C1.789 0 0 1.789 0 4v56c0 2.211 1.789 4 4 4h56c2.211 0 4-1.789 4-4V4c0-2.211-1.789-4-4-4zM40 39.732c1.562.273 3.104.603 4.605 1.029A18.277 18.277 0 0140 44.068v-4.336zM17 2h4.372A12.034 12.034 0 0017 7.211V2zm0 25.816c.314.112.647.184 1 .184 0 3.932 1.626 7.479 4.236 10.022-1.785.37-3.529.847-5.236 1.407V27.816zM7 62H4a2 2 0 01-2-2v-8c0-1.104.447-2.104 1.172-2.828l-.004-.004A45.768 45.768 0 017 46.408V62zm0-17.949a47.813 47.813 0 00-5 3.498V4a2 2 0 012-2h3v42.051zM15 62H9V45.186a46.19 46.19 0 016-2.909V62zm0-39v17.146a47.702 47.702 0 00-6 2.739V2h6v21zm8 39h-6V41.532c.072-.025.142-.054.214-.078A20.165 20.165 0 0023 45.859V62zm0-18.446a18.267 18.267 0 01-3.648-2.779A43.633 43.633 0 0123 39.927v3.627zm0-7.635A11.945 11.945 0 0120 28v-1a1 1 0 00-1-1h-1a1 1 0 01-1-1v-2a1 1 0 011-1h1a1 1 0 001-1v-2a3.99 3.99 0 013-3.858v20.777zm0-22.829c-2.836.478-5 2.939-5 5.91v-7c0-3.698 2.014-6.921 5-8.65v9.74zM31 62h-6V46.735a19.74 19.74 0 006 1.238V62zm0-16.05a17.658 17.658 0 01-6-1.373v-4.462a13.913 13.913 0 006 1.848v3.987zm0-6.001a11.918 11.918 0 01-6-2.217V14.906a5.99 5.99 0 004-2.593 6.029 6.029 0 002 1.874v25.762zm0-28.329A3.963 3.963 0 0130 9a1 1 0 10-2 0 3.99 3.99 0 01-3 3.858V2.459A10.011 10.011 0 0128 2h3v9.62zM38 62h-5V47.973a19.807 19.807 0 005-.909V62zm0-17.071a17.691 17.691 0 01-5 1.019v-3.984a13.918 13.918 0 005-1.316v4.281zm0-6.548a11.89 11.89 0 01-5 1.568V14.906c.326.056.658.094 1 .094h4v23.381zM38 13h-4c-.348 0-.679-.059-1-.142V2h3c.686 0 1.354.069 2 .201V13zm8 49h-6V46.307a20.076 20.076 0 006-4.093V62zm0-22.875a47.911 47.911 0 00-4.235-1.103A13.951 13.951 0 0046 28v11.125zM46 26h-1a1 1 0 00-1 1v1c0 3.549-1.551 6.729-4 8.926V15a4 4 0 014 4v2a1 1 0 001 1h1v4zm0-7c0-3.313-2.688-6-6-6V2.838c3.53 1.544 6 5.063 6 9.162v7zm0-13.628A12.057 12.057 0 0042.628 2H46v3.372zM54 62h-6V41.897a46.243 46.243 0 016 2.72V62zm0-19.63a47.964 47.964 0 00-6-2.596V27.222c.609-.549 1-1.336 1-2.222v-2c0-.886-.391-1.673-1-2.222V2h6v40.37zM62 55v5a2 2 0 01-2 2h-4V45.77a45.58 45.58 0 014.832 3.398l-.004.004A3.983 3.983 0 0162 52v3zm0-48v40.549a47.698 47.698 0 00-6-4.09V2h4a2 2 0 012 2v3z"/></symbol><symbol id="icons-prosecutors" viewBox="0 0 64 64" xmlns:xlink="http://www.w3.org/1999/xlink"><path d="M25.882 22.467c.028-.048.298-.467 1.116-.467.808 0 1.096.436 1.111.458a1 1 0 001.778-.916C29.592 20.969 28.651 20 26.998 20c-1.691 0-2.618.984-2.9 1.564-.234.482-.034 1.045.439 1.299.475.254 1.073.068 1.345-.396zM34.539 22.862c.475.255 1.074.068 1.346-.396.027-.047.297-.466 1.115-.466.809 0 1.096.436 1.111.458a1 1 0 001.778-.916C39.594 20.969 38.654 20 37 20c-1.691 0-2.617.983-2.9 1.564a.982.982 0 00.439 1.298z"/><path d="M62.242 47.758l.014-.014a48.23 48.23 0 00-10.838-6.643l-2.355-.99a50.065 50.065 0 00-8.799-2.461c1.385-1.498 2.631-3.353 3.605-5.503a4.977 4.977 0 00-.275 1.569c0 2.757 2.242 5 5 5 2.756 0 5-2.243 5-5a4.977 4.977 0 00-1.598-3.643c1.539-.853 2.598-2.476 2.598-4.357 0-1.907-1.086-3.549-2.66-4.392a4.981 4.981 0 001.557-3.608c0-2.35-1.637-4.313-3.824-4.846C48.209 5.536 41.764 0 34 0h-4c-7.735 0-14.166 5.496-15.652 12.792-2.402.364-4.254 2.423-4.254 4.925 0 1.501.679 2.834 1.73 3.752-1.432.88-2.397 2.447-2.397 4.248 0 1.882 1.058 3.505 2.598 4.357a4.974 4.974 0 00-1.598 3.643c0 2.757 2.243 5 5 5s5-2.243 5-5c0-.504-.097-.98-.236-1.438.974 2.112 2.208 3.937 3.579 5.411-3.2.605-6.121 1.425-8.838 2.443l-2.347.963c-3.979 1.745-7.526 3.953-10.841 6.648l.014.014A5.981 5.981 0 000 52v8c0 2.211 1.789 4 4 4h56c2.211 0 4-1.789 4-4v-8a5.981 5.981 0 00-1.758-4.242zM44.193 31.391c.42-1.019.777-2.1 1.061-3.237.254.448.563.856.938 1.206a5.005 5.005 0 00-1.999 2.031zm1.957-9.283c-.053.051-.105.101-.156.153 0-.079.006-.156.006-.235.049.03.1.055.15.082zm2.444 14.609c-1.654 0-3-1.346-3-3s1.346-3 3-3 3 1.346 3 3-1.346 3-3 3zm1-8c-1.654 0-3-1.346-3-3s1.346-3 3-3 3 1.346 3 3-1.346 3-3 3zm-34.5-14c.319 0 .622.063.911.157 0-.263.14-.664.257-1.417C17.462 6.944 23.14 2 30 2h4c6.834 0 12.494 4.906 13.725 11.383.092.763.164 1.123.16 1.396.16-.027.438-.063.605-.063 1.654 0 3 1.346 3 3s-1.346 3-3 3a2.993 2.993 0 01-2.969-2.689 9.025 9.025 0 00-1.336-2.101l-.043-.049c-.064-.076-.133-.161-.193-.227-.002.003-.004.006-.004.009A7.976 7.976 0 0038 13h-4a4 4 0 01-4-4 1 1 0 10-2 0 4 4 0 01-4 4 6 6 0 00-5.965 5.358l-.01-.016a3.003 3.003 0 01-2.932 2.374c-1.654 0-3-1.346-3-3s1.346-2.999 3.001-2.999zm2.911 7.52c-.096-.099-.205-.182-.309-.272.103-.063.205-.126.303-.196V22c.001.08.006.158.006.237zm-3.578.48c1.654 0 3 1.346 3 3s-1.346 3-3 3-3-1.346-3-3 1.345-3 3-3zm1 14c-1.654 0-3-1.346-3-3s1.346-3 3-3 3 1.346 3 3-1.346 3-3 3zm2.402-7.358c.367-.343.672-.742.923-1.181.267 1.067.598 2.085.984 3.048a5 5 0 00-1.907-1.867zM20 22v-3a4 4 0 014-4 5.99 5.99 0 005-2.687A5.99 5.99 0 0034 15h4c3.313 0 6 2.688 6 6v1c0 12-7.469 18-12 18s-12-6-12-18zm5.677 17.439C27.76 41.084 29.99 42 32 42s4.24-.916 6.324-2.561a45.715 45.715 0 017.965 1.857L32.598 54.988c-.43.43-.748.447-1.183.013L17.711 41.297a45.595 45.595 0 017.966-1.858zM62 60a2 2 0 01-2 2H4a2 2 0 01-2-2v-8c0-1.104.447-2.104 1.172-2.828l-.004-.004a46.01 46.01 0 0112.453-7.133l14.172 14.172c1.5 1.5 2.914 1.5 4.414 0l14.172-14.172a45.969 45.969 0 0112.453 7.133l-.004.004A3.983 3.983 0 0162 52v8z"/></symbol><symbol id="icons-question" viewBox="0 0 12 12"><path d="M8.991 1.823a2.339 2.339 0 00-.53-.908C8.211.644 7.873.421 7.459.252 7.05.084 6.538 0 5.936 0c-.468 0-.955.063-1.443.188-.494.124-.936.31-1.311.549l-.314.201.848 2.28.463-.237c.299-.154.575-.268.819-.337a2.78 2.78 0 01.747-.098c.128 0 .298.017.381.092.074.069.09.125.09.188a.53.53 0 01-.134.36 8.234 8.234 0 01-.509.553 9.603 9.603 0 00-.417.443 3.508 3.508 0 00-.391.538c-.115.196-.21.41-.278.634a2.62 2.62 0 00-.11.784c0 .084.001.184.006.29.005.134.02.252.039.358l.071.376h2.612l-.086-.535a.545.545 0 01-.008-.106v-.152c0-.084.017-.164.053-.248a1.73 1.73 0 01.178-.321c.075-.108.159-.21.254-.309.108-.111.211-.218.313-.317.139-.139.282-.288.433-.445a4.04 4.04 0 00.434-.551c.133-.205.241-.425.321-.65.09-.247.136-.521.136-.815a3.051 3.051 0 00-.142-.89zM5.745 8.724c-.417 0-.793.14-1.122.414-.242.203-.529.579-.529 1.224s.287 1.021.529 1.223c.327.274.704.415 1.122.415.415 0 .793-.141 1.12-.416.347-.29.529-.713.529-1.223 0-.509-.183-.933-.529-1.224a1.712 1.712 0 00-1.12-.413z"/></symbol><symbol id="icons-arrow-right" viewBox="0 -1.5 10 10"><path d="M8.5 4.768L2.749 8.5l-.801-2.484L5.317 3.5 1.948.985 2.749-1.5l5.75 3.729.001 2.539z"/></symbol><symbol id="icons-check" viewBox="0 0 12 12"><path d="M12 3.612L9.806 1.419 5.032 6.193 2.193 3.354 0 5.548l2.838 2.839 2.193 2.193 2.195-2.193h-.001z"/></symbol><symbol id="icons-facebook" viewBox="0 0 24 24"><path d="M12 0C5.372 0 0 5.372 0 12c0 6.627 5.372 12 12 12s12-5.373 12-12c0-6.628-5.372-12-12-12zm3.813 6.804h-1.808c-.355 0-.717.37-.717.646v1.842h2.52c-.101 1.412-.307 2.703-.307 2.703h-2.227v8.004H9.961v-8.004H8.346V9.303h1.615V7.1c0-.403-.082-3.1 3.396-3.1h2.456v2.804z"/></symbol><symbol id="icons-youtube" viewBox="0 0 24 24"><path d="M12 0C5.372 0 0 5.372 0 12c0 6.627 5.372 12 12 12 6.626 0 12-5.373 12-12 0-6.628-5.374-12-12-12zm7.999 15.208a2.393 2.393 0 01-2.393 2.392H6.389a2.393 2.393 0 01-2.391-2.392V8.793a2.394 2.394 0 012.391-2.395h11.218A2.394 2.394 0 0120 8.793v6.415z"/><path d="M10.396 14.706l4.571-3.013-4.571-3.012z"/></symbol><symbol id="icons-arrow-up" viewBox="0 -1.5 10 10"><path d="M6.269 0L10 5.75l-2.484.801L5 3.182 2.485 6.551 0 5.75 3.729 0h2.54z"/></symbol><symbol id="icons-magnifier" viewBox="0 0 64 64" xmlns:xlink="http://www.w3.org/1999/xlink"><g fill="#45070F"><path d="M62.242 53.758L51.578 43.094A27.861 27.861 0 0056 28C56 12.536 43.464 0 28 0S0 12.536 0 28c0 15.465 12.536 28 28 28a27.858 27.858 0 0015.093-4.422l10.664 10.664c2.343 2.344 6.142 2.344 8.485 0s2.344-6.141 0-8.484zM28 54C13.64 54 2 42.359 2 28S13.64 2 28 2c14.359 0 26 11.641 26 26S42.359 54 28 54zm32.828 6.828a3.997 3.997 0 01-5.656 0L44.768 50.426a28.188 28.188 0 005.658-5.657l10.402 10.402a4 4 0 010 5.657z"/><path d="M28 4C14.745 4 4 14.745 4 28s10.745 24 24 24 24-10.745 24-24S41.255 4 28 4zm0 46C15.85 50 6 40.15 6 28S15.85 6 28 6s22 9.85 22 22-9.85 22-22 22z"/><path d="M28 11a1 1 0 100 2c8.284 0 15 6.716 15 15a1 1 0 102 0c0-9.389-7.611-17-17-17z"/></g></symbol><symbol id="icons-twitter" viewBox="0 0 24 24"><path d="M15.241.45C8.861-1.34 2.237 2.38.449 8.76c-1.79 6.379 1.932 13 8.312 14.791 6.377 1.791 13-1.931 14.791-8.31C25.34 8.862 21.62 2.239 15.241.45zm2.85 11.845c-1.306 5.284-10.06 7.527-14.088 2.039 1.542 1.473 4.228 1.602 5.932-.159-.998.147-1.725-.833-.497-1.361-1.104.119-1.718-.467-1.969-.964.258-.271.544-.398 1.095-.434-1.207-.285-1.654-.877-1.791-1.594.336-.082.755-.149.984-.119-1.059-.551-1.425-1.384-1.368-2.01 1.891.703 3.095 1.265 4.103 1.807.361.191.76.536 1.212.975.576-1.521 1.287-3.089 2.503-3.866a.854.854 0 01-.239.475 2.396 2.396 0 011.252-.592c-.054.342-.546.535-.844.646.225-.07 1.423-.604 1.554-.3.155.346-.827.506-.993.566a6.703 6.703 0 00-.373.137c1.519-.15 2.97 1.102 3.392 2.655.03.112.061.236.089.367.556.206 1.561-.011 1.885-.21-.234.555-.844.963-1.742 1.037.434.181 1.247.279 1.813.184-.358.382-.933.729-1.91.721z"/></symbol><symbol id="icons-arrow-left" viewBox="0 -1.5 10 10"><path d="M1.5 2.234l5.751-3.732.801 2.484-3.369 2.515 3.369 2.516-.801 2.484-5.75-3.729L1.5 2.234z"/></symbol><symbol id="icons-eu" viewBox="0 0 64 64" xmlns:xlink="http://www.w3.org/1999/xlink"><path d="M18 39.999a2 2 0 00-2 2v4h32v-4a2 2 0 00-2-2h-3v-14h3a1.999 1.999 0 00.993-3.736l-14-8a1.998 1.998 0 00-1.984 0l-14 8A1.998 1.998 0 0018 25.999h3v14h-3zm1-16c-.609 0-.275-.414-.013-.564l12.471-7.125c.345-.198.725-.207 1.047-.022 2.361 1.349 12.203 6.972 12.5 7.144.339.193.651.568-.005.568H19zm22.001 2v14h-2v-14h2zm-4 0v14h-2v-14h2zm-4 0v14h-2v-14h2zm-4.001 0v14h-2v-14h2zm-4 0v14h-2v-14h2zm20.001 16a1 1 0 011 1v1H18v-1a1 1 0 011-1h26.001zM28.686 6.387l-.285 1.751a1.488 1.488 0 002.195 1.541l1.405-.779 1.416.782a1.501 1.501 0 001.58-.095c.463-.333.694-.89.604-1.454l-.285-1.747 1.199-1.229a1.494 1.494 0 00-.849-2.514l-1.589-.242L33.35.85A1.5 1.5 0 0032.001 0a1.5 1.5 0 00-1.351.855l-.726 1.546-1.6.243a1.494 1.494 0 00-.833 2.518l1.195 1.225zm2.597-2.169l.719-1.532.719 1.532 1.67.254-1.211 1.241.278 1.708-1.457-.806-1.458.806.279-1.708-1.21-1.241 1.671-.254zM35.667 56.777l-1.589-.242-.729-1.552a1.5 1.5 0 00-1.348-.85 1.5 1.5 0 00-1.351.855l-.726 1.546-1.595.242a1.487 1.487 0 00-1.183 1 1.484 1.484 0 00.345 1.519l1.193 1.224-.285 1.751a1.492 1.492 0 002.198 1.542l1.405-.777 1.416.782c.49.266 1.113.23 1.573-.092.467-.33.701-.888.611-1.459l-.285-1.746 1.199-1.229c.388-.403.519-.983.34-1.512a1.49 1.49 0 00-1.189-1.002zm-2.487 3.069l.279 1.709-1.458-.806-1.458.806.279-1.709-1.21-1.24 1.67-.254.719-1.532.719 1.532 1.669.254-1.209 1.24zM6.35 36.692a1.519 1.519 0 001.566-.088c.469-.327.706-.884.618-1.464l-.284-1.745 1.198-1.229a1.49 1.49 0 00.342-1.512 1.49 1.49 0 00-1.188-1.001l-1.59-.243-.73-1.555a1.487 1.487 0 00-1.347-.847c-.572 0-1.102.334-1.351.856l-.726 1.546-1.594.243a1.484 1.484 0 00-1.181.991 1.477 1.477 0 00.343 1.526l1.192 1.224-.286 1.757a1.48 1.48 0 00.608 1.445 1.477 1.477 0 001.588.09l1.405-.777 1.417.783zm-2.874-2.261l.279-1.71-1.209-1.239 1.669-.255.719-1.533.72 1.533 1.668.255-1.209 1.239.279 1.71-1.458-.806-1.458.806zM63.923 30.654a1.488 1.488 0 00-1.188-1.001l-1.59-.243-.728-1.551a1.501 1.501 0 00-1.35-.851c-.572 0-1.102.334-1.351.856l-.725 1.545-1.595.243a1.482 1.482 0 00-1.18.986 1.478 1.478 0 00.342 1.531l1.192 1.224-.285 1.757a1.484 1.484 0 00.609 1.447 1.48 1.48 0 001.586.088l1.405-.777 1.411.779a1.521 1.521 0 001.571-.085c.469-.327.706-.884.618-1.464l-.285-1.746 1.198-1.229c.389-.397.521-.975.345-1.509zm-3.677 2.067l.279 1.71-1.458-.806-1.457.806.278-1.71-1.209-1.239 1.67-.255.719-1.533.719 1.533 1.668.255-1.209 1.239zM5.494 20.801l-.286 1.757a1.48 1.48 0 00.608 1.445 1.477 1.477 0 001.588.09l1.405-.777 1.416.782a1.518 1.518 0 001.566-.088 1.49 1.49 0 00.618-1.463l-.286-1.747 1.201-1.229a1.493 1.493 0 00-.85-2.512l-1.588-.242-.73-1.556a1.487 1.487 0 00-1.347-.847c-.575 0-1.104.336-1.351.856l-.726 1.546-1.594.244a1.483 1.483 0 00-1.18.991 1.483 1.483 0 00.343 1.527l1.193 1.223zm2.596-2.167l.72-1.533.719 1.533 1.668.254-1.21 1.239.279 1.71-1.457-.806-1.458.806.279-1.71-1.209-1.239 1.669-.254zM50.685 19.578l1.193 1.224-.284 1.751a1.5 1.5 0 00.607 1.452 1.48 1.48 0 001.585.088l1.407-.777 1.41.779c.488.27 1.126.229 1.571-.085a1.49 1.49 0 00.618-1.463l-.285-1.747 1.2-1.229c.385-.402.515-.979.34-1.511a1.489 1.489 0 00-1.188-1.001l-1.59-.242-.728-1.552c-.246-.517-.775-.851-1.349-.851s-1.103.334-1.352.857l-.724 1.545-1.596.242a1.493 1.493 0 00-.835 2.52zm3.791-.944l.718-1.533.719 1.533 1.668.254-1.209 1.239.279 1.71-1.457-.806-1.457.806.278-1.71-1.209-1.239 1.67-.254zM13.665 44.217a1.496 1.496 0 00-1.19-1.002l-1.588-.242-.73-1.555a1.487 1.487 0 00-1.347-.847c-.575 0-1.104.336-1.351.856l-.726 1.545-1.6.243a1.487 1.487 0 00-1.175.991 1.477 1.477 0 00.343 1.526l1.192 1.224-.286 1.756a1.484 1.484 0 00.608 1.446 1.477 1.477 0 001.588.09l1.405-.778 1.425.788c.5.263 1.117.219 1.562-.096.466-.328.702-.884.614-1.461l-.286-1.746 1.199-1.229c.388-.401.52-.98.343-1.509zm-3.678 2.066l.279 1.709-1.457-.806-1.458.807.279-1.71-1.209-1.24 1.669-.254.72-1.533.719 1.533 1.668.254-1.21 1.24zM58.859 43.215l-1.59-.242-.728-1.551c-.246-.517-.775-.851-1.349-.851s-1.103.334-1.352.857l-.724 1.544-1.601.243a1.486 1.486 0 00-1.175.986 1.478 1.478 0 00.342 1.531l1.193 1.224-.284 1.751a1.489 1.489 0 002.193 1.541l1.406-.778 1.419.786a1.517 1.517 0 001.566-.094c.466-.328.702-.884.614-1.461l-.285-1.746 1.198-1.229c.386-.4.518-.979.342-1.512a1.484 1.484 0 00-1.185-.999zm-2.488 3.068l.279 1.709-1.457-.806-1.457.806.278-1.709-1.21-1.24 1.671-.254.718-1.532.719 1.532 1.669.254-1.21 1.24zM15.181 10.145l-.286 1.757c-.087.569.15 1.126.604 1.442.254.185.555.281.868.281.255 0 .507-.065.724-.188l1.405-.777 1.42.785c.496.265 1.123.22 1.563-.091.464-.324.706-.896.617-1.463l-.285-1.747 1.199-1.228a1.494 1.494 0 00-.848-2.514l-1.589-.242-.729-1.556a1.503 1.503 0 00-1.347-.846 1.5 1.5 0 00-1.351.855l-.726 1.548-1.6.243a1.49 1.49 0 00-1.175.99 1.478 1.478 0 00.343 1.527l1.193 1.224zm2.597-2.167l.719-1.533.719 1.533 1.669.254-1.21 1.239.279 1.71-1.457-.806-1.458.806.279-1.71-1.209-1.239 1.669-.254zM42.19 10.145l-.284 1.752a1.498 1.498 0 00.606 1.451c.254.182.554.277.865.277.256 0 .508-.066.723-.188l1.405-.777 1.405.777a1.51 1.51 0 001.58-.085c.466-.328.702-.884.614-1.461l-.285-1.747 1.198-1.228a1.494 1.494 0 00-.847-2.514l-1.59-.242-.728-1.552c-.246-.517-.775-.85-1.349-.85s-1.103.333-1.352.856l-.724 1.545-1.597.245a1.488 1.488 0 00-1.175.985 1.48 1.48 0 00.342 1.532l1.193 1.224zm2.598-2.167l.718-1.533.719 1.533 1.668.254-1.209 1.239.279 1.71-1.457-.806-1.457.806.278-1.71-1.209-1.239 1.67-.254zM22.162 52.902l-1.589-.242-.73-1.558a1.505 1.505 0 00-1.346-.844 1.5 1.5 0 00-1.351.855l-.726 1.547-1.6.243a1.486 1.486 0 00-1.174.989 1.476 1.476 0 00.342 1.528l1.192 1.224-.285 1.756a1.484 1.484 0 00.608 1.446 1.482 1.482 0 001.588.09l1.405-.777 1.42.785a1.516 1.516 0 001.566-.093 1.49 1.49 0 00.613-1.461l-.285-1.746 1.199-1.229a1.493 1.493 0 00-.847-2.513zm-2.488 3.069l.279 1.709-1.457-.806-1.458.806.279-1.709-1.209-1.24 1.669-.254.719-1.533.719 1.533 1.669.254-1.21 1.24zM49.172 52.902l-1.59-.242-.729-1.554c-.247-.515-.776-.848-1.348-.848s-1.101.333-1.352.856l-.724 1.545-1.601.243a1.495 1.495 0 00-.833 2.517l1.193 1.224-.284 1.751c-.09.566.145 1.124.61 1.454a1.478 1.478 0 001.584.087l1.405-.777 1.405.777c.488.27 1.104.245 1.583-.087.464-.328.699-.884.611-1.459l-.285-1.746 1.198-1.229a1.492 1.492 0 00-.843-2.512zm-2.488 3.069l.279 1.709-1.457-.806-1.457.806.278-1.709-1.21-1.24 1.671-.254.718-1.533.719 1.533 1.669.254-1.21 1.24z"/></symbol><symbol id="icons-logo" viewBox="0 0 222 60" xmlns:xlink="http://www.w3.org/1999/xlink"><path fill="none" stroke="#2CABE1" stroke-width="3.049" stroke-miterlimit="10" d="M13.126 30.001h0"/><path fill="#00AEEF" d="M13.126 16.882c-1.876 0-3.659.398-5.271 1.11V9.404a5.276 5.276 0 015.271-5.272 5.276 5.276 0 015.27 5.264h-.004v5.088h4.077v-5.08h.003c0-5.154-4.193-9.348-9.346-9.348-5.154 0-9.347 4.193-9.347 9.348v11.399A13.085 13.085 0 000 30.008c0 7.236 5.887 13.125 13.126 13.125 1.874 0 3.657-.399 5.27-1.109v8.574a5.277 5.277 0 01-5.27 5.273 5.277 5.277 0 01-5.271-5.273h.002V45.51H3.779v5.088c0 5.153 4.193 9.346 9.347 9.346 5.153 0 9.346-4.192 9.346-9.346V39.209a13.08 13.08 0 003.776-9.201c.001-7.237-5.886-13.126-13.122-13.126m0 22.175c-4.99 0-9.049-4.061-9.049-9.049 0-3.004 1.476-5.663 3.733-7.31h.044v-.034a8.998 8.998 0 015.271-1.707c4.988 0 9.049 4.062 9.049 9.051.001 4.988-4.06 9.049-9.048 9.049"/><path fill="#003863" d="M15.339 27.674a2.212 2.212 0 00-2.213-2.213 2.213 2.213 0 00-2.216 2.213c0 .871.504 1.618 1.232 1.982l-.877 4.886h3.723l-.881-4.886a2.215 2.215 0 001.232-1.982"/><g fill="#1B325F"><path d="M53.492 17.578c0 1.49-.223 2.8-.666 3.93-.444 1.13-1.05 2.076-1.82 2.838a7.49 7.49 0 01-2.75 1.721c-1.063.385-2.206.577-3.427.577a9.742 9.742 0 01-3.366-.577 7.732 7.732 0 01-2.762-1.721c-.787-.762-1.406-1.708-1.858-2.838-.452-1.13-.678-2.439-.678-3.93s.234-2.8.703-3.931c.468-1.13 1.101-2.08 1.896-2.85.795-.771 1.716-1.349 2.762-1.733s2.147-.577 3.303-.577a9.74 9.74 0 013.365.577 7.66 7.66 0 012.762 1.733c.787.77 1.406 1.72 1.858 2.85.451 1.131.678 2.441.678 3.931zm-13.285 0c0 .854.104 1.624.314 2.311s.511 1.276.904 1.771c.394.494.875.875 1.444 1.143s1.222.401 1.959.401c.719 0 1.368-.134 1.945-.401a3.967 3.967 0 001.457-1.143c.393-.494.694-1.084.904-1.771.209-.687.314-1.457.314-2.311s-.105-1.629-.314-2.323c-.209-.694-.511-1.289-.904-1.782a3.98 3.98 0 00-1.457-1.144c-.578-.268-1.227-.401-1.945-.401-.737 0-1.391.138-1.959.414a4.12 4.12 0 00-1.444 1.155c-.393.494-.694 1.089-.904 1.783s-.314 1.461-.314 2.298zM69.338 8.889v3.34h-5.249v14.063h-3.917V12.229h-5.249v-3.34h14.415zM76.726 26.292c-.693-1.462-1.376-2.979-2.05-4.551a171.833 171.833 0 01-3.593-9.085 168.015 168.015 0 01-1.318-3.768h4.319a241.712 241.712 0 002.306 6.728c.415 1.154.81 2.26 1.189 3.316.379 1.058.742 1.97 1.089 2.738.327-.764.685-1.674 1.072-2.73a481.27 481.27 0 001.202-3.316 263.67 263.67 0 001.218-3.474 183.74 183.74 0 001.089-3.262h4.171a432.91 432.91 0 01-1.346 3.771 175.906 175.906 0 01-3.573 9.088 121.787 121.787 0 01-2.04 4.544h-3.735zM105.903 17.578c0 1.49-.222 2.8-.666 3.93-.444 1.13-1.051 2.076-1.821 2.838a7.473 7.473 0 01-2.75 1.721c-1.063.385-2.207.577-3.428.577a9.736 9.736 0 01-3.365-.577 7.724 7.724 0 01-2.762-1.721c-.788-.762-1.406-1.708-1.859-2.838-.452-1.13-.678-2.439-.678-3.93s.234-2.8.704-3.931c.468-1.13 1.101-2.08 1.896-2.85a7.766 7.766 0 012.763-1.733 9.484 9.484 0 013.302-.577 9.74 9.74 0 013.365.577 7.664 7.664 0 012.763 1.733c.787.77 1.407 1.72 1.858 2.85.452 1.131.678 2.441.678 3.931zm-13.285 0c0 .854.104 1.624.314 2.311s.511 1.276.904 1.771c.393.494.875.875 1.444 1.143s1.222.401 1.959.401c.72 0 1.369-.134 1.946-.401s1.063-.648 1.457-1.143a5.279 5.279 0 00.904-1.771c.209-.687.314-1.457.314-2.311s-.105-1.629-.314-2.323c-.209-.694-.511-1.289-.904-1.782-.394-.494-.879-.876-1.457-1.144s-1.227-.401-1.946-.401c-.737 0-1.39.138-1.959.414s-1.051.661-1.444 1.155c-.394.494-.695 1.089-.904 1.783s-.314 1.461-.314 2.298zM113.939 8.688c2.611 0 4.612.465 6.001 1.394 1.391.93 2.086 2.374 2.086 4.332 0 1.223-.281 2.215-.842 2.977s-1.369 1.36-2.424 1.795c.352.436.72.935 1.105 1.495.385.561.766 1.146 1.143 1.758s.74 1.247 1.092 1.908c.352.662.679 1.311.979 1.946H118.7l-.972-1.732a39.573 39.573 0 00-1.008-1.708 47.395 47.395 0 00-1.021-1.569 17.48 17.48 0 00-1.009-1.344h-1.934v6.354h-3.917V9.14a22.509 22.509 0 012.65-.352c.914-.066 1.73-.1 2.45-.1zm.226 3.339c-.284 0-.539.009-.766.025s-.439.034-.641.051v4.721h1.105c1.473 0 2.527-.184 3.164-.553.637-.367.954-.995.954-1.883 0-.854-.323-1.461-.966-1.821-.644-.359-1.594-.54-2.85-.54zM125.265 26.292V8.889h11.754v3.29h-7.836v3.415h6.957v3.215h-6.957v4.193h8.412v3.29h-12.33zM151.835 26.292c-1.122-1.992-2.336-3.959-3.642-5.901s-2.696-3.775-4.169-5.5v11.401h-3.867V8.889h3.188c.554.553 1.164 1.23 1.834 2.034s1.352 1.662 2.047 2.574a88.392 88.392 0 012.071 2.838c.688.979 1.332 1.921 1.934 2.825V8.889h3.893v17.403h-3.289zM170.492 26.292a71.708 71.708 0 00-.625-1.863l-.665-1.903h-6.798l-.661 1.909a77.392 77.392 0 00-.617 1.857h-4.067a309.447 309.447 0 011.864-5.198 167.534 167.534 0 013.387-8.501 89.496 89.496 0 011.701-3.704h3.714a136.115 136.115 0 013.368 7.71 179.32 179.32 0 011.729 4.495 317.228 317.228 0 011.867 5.198h-4.197zm-1.706-21.974l-4.131 3.49-1.721-1.531 3.555-4.068 2.297 2.109zm-3.001 8.514c-.087.252-.216.597-.384 1.031s-.359.938-.574 1.508-.456 1.198-.722 1.883c-.265.687-.536 1.405-.81 2.157h4.977c-.267-.755-.524-1.476-.773-2.163-.25-.688-.487-1.316-.712-1.887s-.422-1.073-.591-1.508a41.59 41.59 0 00-.411-1.021zM42.141 32.797c2.595 0 4.587.456 5.977 1.368 1.39.913 2.084 2.407 2.084 4.483 0 2.093-.703 3.604-2.109 4.532s-3.416 1.394-6.027 1.394h-1.23V50.4h-3.917V33.248a22.263 22.263 0 012.712-.351c.952-.067 1.789-.1 2.51-.1zm.251 3.34c-.285 0-.565.009-.842.025a32.53 32.53 0 00-.715.05v5.022h1.23c1.356 0 2.377-.184 3.063-.553.687-.367 1.03-1.055 1.03-2.059 0-.485-.088-.888-.264-1.206a2.02 2.02 0 00-.753-.766 3.38 3.38 0 00-1.193-.401 9.899 9.899 0 00-1.556-.112zM57.861 32.797c2.611 0 4.612.465 6.001 1.394s2.084 2.374 2.084 4.331c0 1.223-.28 2.215-.841 2.977-.562.762-1.369 1.361-2.424 1.796.352.436.72.934 1.105 1.494a43.2 43.2 0 011.142 1.759c.376.61.741 1.246 1.093 1.908.351.661.678 1.31.979 1.945h-4.379c-.32-.568-.644-1.146-.971-1.732s-.663-1.155-1.008-1.708a46.84 46.84 0 00-1.021-1.569 17.478 17.478 0 00-1.008-1.344h-1.934V50.4h-3.917V33.248a22.312 22.312 0 012.649-.351c.914-.067 1.73-.1 2.45-.1zm.226 3.34c-.285 0-.54.009-.766.025s-.439.033-.641.05v4.722h1.105c1.473 0 2.528-.185 3.164-.553s.955-.996.955-1.884c0-.854-.323-1.46-.967-1.82-.645-.361-1.594-.54-2.85-.54zM85.762 41.688c0 1.489-.222 2.799-.666 3.93-.444 1.129-1.051 2.076-1.821 2.838s-1.687 1.334-2.75 1.72c-1.063.386-2.206.577-3.428.577a9.722 9.722 0 01-3.366-.577 7.735 7.735 0 01-2.762-1.72c-.788-.762-1.407-1.709-1.859-2.838-.452-1.131-.678-2.44-.678-3.93 0-1.49.235-2.801.704-3.931.468-1.13 1.101-2.081 1.896-2.851a7.777 7.777 0 012.763-1.732 9.485 9.485 0 013.302-.578c1.188 0 2.311.193 3.365.578s1.976.963 2.763 1.732 1.406 1.721 1.858 2.851c.453 1.13.679 2.44.679 3.931zm-13.284 0c0 .854.104 1.623.313 2.31s.511 1.276.904 1.771c.394.494.875.875 1.443 1.143.569.268 1.223.402 1.959.402.72 0 1.369-.135 1.946-.402a3.96 3.96 0 001.457-1.143c.393-.494.694-1.084.904-1.771.209-.687.314-1.456.314-2.31 0-.854-.105-1.629-.314-2.324-.209-.693-.511-1.289-.904-1.783a3.99 3.99 0 00-1.457-1.143c-.578-.268-1.227-.4-1.946-.4-.737 0-1.39.137-1.959.414a4.132 4.132 0 00-1.443 1.154c-.393.494-.695 1.088-.904 1.783a7.959 7.959 0 00-.313 2.299zM98.96 50.4a31.57 31.57 0 00-1.248-1.836c-.479-.657-.994-1.32-1.547-1.988s-1.131-1.309-1.735-1.922a18.573 18.573 0 00-1.813-1.625V50.4H88.7V32.998h3.917v6.541a160.66 160.66 0 003.07-3.32 546.006 546.006 0 002.878-3.221h4.649a119.506 119.506 0 01-7.359 7.998c1.392 1.162 2.736 2.539 4.03 4.133a51.821 51.821 0 013.73 5.271H98.96zM112.357 50.752c-1.223 0-2.277-.172-3.165-.514-.888-.344-1.62-.82-2.197-1.433a5.712 5.712 0 01-1.281-2.185c-.276-.845-.415-1.778-.415-2.799V32.998h3.918v10.496c0 .704.079 1.302.239 1.797.159.493.376.895.653 1.205.276.31.61.531 1.004.665.393.135.825.201 1.293.201.954 0 1.729-.293 2.322-.879.595-.586.893-1.583.893-2.989V32.998h3.917v10.824c0 1.021-.142 1.958-.427 2.812a5.774 5.774 0 01-1.306 2.198c-.587.61-1.331 1.084-2.235 1.418-.903.335-1.974.502-3.213.502zM128.078 32.797c2.61 0 4.611.465 6.001 1.394s2.084 2.374 2.084 4.331c0 1.223-.279 2.215-.841 2.977s-1.368 1.361-2.423 1.796c.352.436.719.934 1.104 1.494.386.562.766 1.147 1.143 1.759.376.61.741 1.246 1.093 1.908.352.661.678 1.31.979 1.945h-4.377c-.321-.568-.645-1.146-.973-1.732a41.741 41.741 0 00-1.008-1.708c-.345-.552-.686-1.075-1.021-1.569s-.672-.941-1.009-1.344h-1.933V50.4h-3.918V33.248a22.312 22.312 0 012.649-.351c.913-.067 1.729-.1 2.45-.1zm.226 3.34c-.285 0-.54.009-.766.025-.228.017-.439.033-.641.05v4.722h1.104c1.473 0 2.528-.185 3.164-.553s.954-.996.954-1.884c0-.854-.322-1.46-.967-1.82s-1.593-.54-2.848-.54zM151.079 50.4c-.193-.604-.402-1.225-.625-1.862l-.666-1.904h-6.797c-.221.635-.44 1.271-.661 1.909s-.427 1.258-.617 1.857h-4.067a300.958 300.958 0 011.863-5.197c.588-1.591 1.162-3.09 1.726-4.496a163.498 163.498 0 011.662-4.006 88.157 88.157 0 011.701-3.703h3.714a136.115 136.115 0 013.368 7.709c.564 1.406 1.14 2.905 1.728 4.496.59 1.59 1.211 3.323 1.867 5.197h-4.196zm-4.707-13.46a33.59 33.59 0 01-.384 1.031c-.169.436-.36.938-.573 1.508-.217.571-.457 1.198-.723 1.884s-.536 1.404-.811 2.156h4.977c-.266-.754-.523-1.476-.773-2.162a73.512 73.512 0 00-.711-1.888c-.225-.57-.422-1.073-.592-1.508a44.062 44.062 0 00-.41-1.021zM170.092 32.998v3.339h-5.249V50.4h-3.917V36.337h-5.249v-3.339h14.415zM179.082 50.752c-1.222 0-2.276-.172-3.164-.514-.888-.344-1.62-.82-2.197-1.433a5.684 5.684 0 01-1.28-2.185c-.277-.845-.415-1.778-.415-2.799V32.998h3.917v10.496c0 .704.08 1.302.239 1.797.159.493.377.895.653 1.205.275.31.61.531 1.004.665a3.96 3.96 0 001.294.201c.954 0 1.729-.293 2.323-.879.594-.586.891-1.583.891-2.989V32.998h3.918v10.824c0 1.021-.143 1.958-.428 2.812a5.746 5.746 0 01-1.305 2.198c-.587.61-1.332 1.084-2.235 1.418-.904.335-1.977.502-3.215.502zm3.466-22.325l-4.131 3.491-1.721-1.532 3.554-4.068 2.298 2.109zM194.804 32.797c2.611 0 4.611.465 6.001 1.394s2.085 2.374 2.085 4.331c0 1.223-.281 2.215-.842 2.977s-1.369 1.361-2.423 1.796c.352.436.72.934 1.104 1.494.385.562.766 1.147 1.143 1.759.377.61.741 1.246 1.093 1.908.352.661.679 1.31.979 1.945h-4.379c-.32-.568-.645-1.146-.972-1.732s-.663-1.155-1.008-1.708a50.214 50.214 0 00-1.021-1.569 17.742 17.742 0 00-1.009-1.344h-1.935V50.4h-3.917V33.248a22.312 22.312 0 012.649-.351 33.89 33.89 0 012.452-.1zm.224 3.34c-.283 0-.539.009-.766.025-.226.017-.439.033-.641.05v4.722h1.105c1.473 0 2.528-.185 3.164-.553.637-.368.955-.996.955-1.884 0-.854-.323-1.46-.967-1.82-.643-.361-1.594-.54-2.85-.54zM217.804 50.4c-.193-.604-.4-1.225-.625-1.862-.221-.638-.444-1.272-.665-1.904h-6.797l-.661 1.909a85.59 85.59 0 00-.617 1.857h-4.068a308.747 308.747 0 011.865-5.197 167.534 167.534 0 013.387-8.502 90.777 90.777 0 011.7-3.703h3.715a136.115 136.115 0 013.368 7.709c.564 1.406 1.14 2.905 1.729 4.496.588 1.59 1.211 3.323 1.866 5.197h-4.197zm-4.706-13.46c-.087.253-.216.597-.384 1.031-.168.436-.359.938-.574 1.508-.216.571-.456 1.198-.723 1.884-.265.686-.535 1.404-.809 2.156h4.977c-.268-.754-.524-1.476-.773-2.162a77.02 77.02 0 00-.713-1.888c-.225-.57-.422-1.073-.59-1.508-.17-.434-.307-.773-.411-1.021z"/></g></symbol><symbol id="icons-hearings" viewBox="0 0 64 64"><path d="M15.907 9.162c2.528 0 4.585-2.055 4.585-4.581S18.436 0 15.907 0s-4.586 2.055-4.586 4.581 2.058 4.581 4.586 4.581zm0-7.162c1.426 0 2.585 1.158 2.585 2.581a2.586 2.586 0 01-5.171 0A2.586 2.586 0 0115.907 2zM26.664 9.162c2.528 0 4.585-2.055 4.585-4.581S29.192 0 26.664 0s-4.586 2.055-4.586 4.581 2.058 4.581 4.586 4.581zm0-7.162c1.426 0 2.585 1.158 2.585 2.581a2.586 2.586 0 01-5.171 0A2.586 2.586 0 0126.664 2zM37.42 9.162c2.528 0 4.586-2.055 4.586-4.581S39.948 0 37.42 0s-4.585 2.055-4.585 4.581 2.057 4.581 4.585 4.581zm0-7.162c1.426 0 2.586 1.158 2.586 2.581a2.586 2.586 0 01-5.171 0A2.586 2.586 0 0137.42 2zM11.126 18.712c2.528 0 4.586-2.055 4.586-4.581S13.654 9.55 11.126 9.55s-4.585 2.055-4.585 4.581 2.057 4.581 4.585 4.581zm0-7.162c1.426 0 2.586 1.158 2.586 2.581a2.586 2.586 0 01-5.171 0 2.586 2.586 0 012.585-2.581zM17.298 14.131c0 2.526 2.057 4.581 4.585 4.581s4.586-2.055 4.586-4.581-2.058-4.581-4.586-4.581-4.585 2.054-4.585 4.581zm4.585-2.581c1.426 0 2.586 1.158 2.586 2.581a2.586 2.586 0 01-5.171 0 2.586 2.586 0 012.585-2.581zM28.054 14.131c0 2.526 2.058 4.581 4.586 4.581s4.586-2.055 4.586-4.581S35.168 9.55 32.64 9.55s-4.586 2.054-4.586 4.581zm4.586-2.581c1.426 0 2.586 1.158 2.586 2.581a2.586 2.586 0 01-5.172 0 2.586 2.586 0 012.586-2.581zM38.811 14.131c0 2.526 2.058 4.581 4.586 4.581s4.586-2.055 4.586-4.581-2.058-4.581-4.587-4.581-4.585 2.054-4.585 4.581zm4.585-2.581c1.426 0 2.586 1.158 2.586 2.581a2.586 2.586 0 01-5.172 0 2.587 2.587 0 012.586-2.581zM48.177 9.162c2.528 0 4.586-2.055 4.586-4.581S50.705 0 48.177 0s-4.585 2.055-4.585 4.581 2.056 4.581 4.585 4.581zm0-7.162c1.426 0 2.586 1.158 2.586 2.581a2.586 2.586 0 01-5.171 0A2.586 2.586 0 0148.177 2zM49.567 14.131c0 2.526 2.057 4.581 4.585 4.581s4.586-2.055 4.586-4.581-2.057-4.581-4.586-4.581-4.585 2.054-4.585 4.581zm4.585-2.581c1.426 0 2.586 1.158 2.586 2.581a2.586 2.586 0 01-5.171 0 2.586 2.586 0 012.585-2.581zM2.12 28.982h16.733a1 1 0 001-1v-4.724a3.239 3.239 0 00-3.236-3.234H4.356a3.239 3.239 0 00-3.236 3.234v4.724a1 1 0 001 1zm1-5.723c0-.681.555-1.234 1.236-1.234h12.261c.682 0 1.236.554 1.236 1.234v3.724H3.12v-3.724zM25.87 20.024a3.239 3.239 0 00-3.236 3.234v4.724a1 1 0 001 1h16.732a1 1 0 001-1v-4.724a3.239 3.239 0 00-3.236-3.234H25.87zm13.496 3.235v3.724H24.634v-3.724c0-.681.555-1.234 1.236-1.234h12.26a1.235 1.235 0 011.236 1.234zM44.146 23.259v4.724a1 1 0 001 1H61.88a1 1 0 001-1v-4.724a3.239 3.239 0 00-3.236-3.234H47.383a3.24 3.24 0 00-3.237 3.234zm16.734 0v3.724H46.146v-3.724c0-.681.555-1.234 1.236-1.234h12.261a1.236 1.236 0 011.237 1.234zM63 31.112H1a1 1 0 00-1 1v5.521a1 1 0 001 1h4.976V63a1 1 0 001 1h50.049a1 1 0 001-1V38.633H63a1 1 0 001-1v-5.521a1 1 0 00-1-1zm-1 5.521h-4.976a1 1 0 00-1 1V62H7.976V37.633a1 1 0 00-1-1H2v-3.521h60v3.521z"/><path d="M18.634 50.144c-.001.016-.009.028-.009.044 0 .024.007.046.007.069.001.062.006.122.018.183.13 2.584 2.167 4.186 5.413 4.186 3.242 0 5.279-1.6 5.412-4.18a.972.972 0 00.019-.187c0-.024.007-.046.007-.071 0-.012-.006-.021-.007-.032-.003-.04-.015-.078-.023-.117a.965.965 0 00-.101-.317l-3.679-9.846h5.185V56H24.25a1 1 0 100 2h15.5a1 1 0 100-2h-6.875V39.875h5.264l-3.996 9.829a.948.948 0 00-.109.316c-.01.041-.02.081-.024.123-.002.016-.01.029-.01.045 0 .024.007.046.007.069.001.062.006.122.018.183.13 2.584 2.167 4.186 5.413 4.186 3.242 0 5.279-1.6 5.412-4.18a.972.972 0 00.019-.187c0-.024.007-.046.007-.071 0-.012-.006-.021-.007-.032-.003-.04-.015-.078-.023-.117a.965.965 0 00-.101-.317l-4.183-11.195a.99.99 0 00-.812-.632v-.019h-6.875v-1a1 1 0 10-2 0v1H24.25v.002c-.396-.018-.773.244-.927.621l-4.556 11.206a.948.948 0 00-.109.316c-.01.041-.019.081-.024.123zm20.804 2.481c-1.24 0-2.662-.27-3.206-1.375h6.412c-.544 1.105-1.966 1.375-3.206 1.375zm2.972-3.437h-5.898l3.074-7.561 2.824 7.561zm-18.347 3.437c-1.24 0-2.662-.27-3.206-1.375h6.412c-.544 1.105-1.966 1.375-3.206 1.375zm.148-10.998l2.824 7.561h-5.898l3.074-7.561z"/></symbol><symbol id="icons-times" viewBox="0 0 12 12"><path d="M11 3.395L8.605 1 6 3.605 3.395 1 1 3.395 3.605 6 1 8.605 3.395 11 6 8.395 8.605 11 11 8.605 8.395 6z"/></symbol><symbol id="icons-general-office" viewBox="0 0 64 64" xmlns:xlink="http://www.w3.org/1999/xlink"><path d="M60 58a4 4 0 00-4-4h-2V25h6a4 4 0 002.077-7.419l-28-17a3.997 3.997 0 00-4.153 0l-28 17A3.999 3.999 0 004 25h6v29H8a4 4 0 00-4 4 4 4 0 00-4 4v2h64v-2a4 4 0 00-4-4zM4 23a2.006 2.006 0 01-1.926-1.462 2.004 2.004 0 01.888-2.247L30.963 2.29a1.994 1.994 0 012.075.001l28.001 17a2.003 2.003 0 01.887 2.248A2.006 2.006 0 0160 23H4zm48 2v29h-4V25h4zm-6 0v29h-4V25h4zm-6 0v29h-4V25h4zm-6 0v29h-4V25h4zm-6 0v29h-4V25h4zm-6 0v29h-4V25h4zm-6 0v29h-4V25h4zM8 56h48a2 2 0 012 2H6a2 2 0 012-2zm-6 6a2 2 0 012-2h56a2 2 0 012 2H2z"/><path d="M32 9c-2.762 0-5 2.238-5 5s2.238 5 5 5 5-2.238 5-5-2.238-5-5-5zm0 8a3 3 0 110-6 3 3 0 010 6z"/></symbol></svg>
