<svg style="display: none;" id="icons" xmlns="http://www.w3.org/2000/svg"><symbol id="icons-search" viewBox="0 0 16 16"><path d="M15.707 14.292l-3.106-3.105A6.961 6.961 0 0014 7a7 7 0 10-7 6.999 6.958 6.958 0 004.187-1.398l3.106 3.105a.999.999 0 101.414-1.414M7 11.999A5 5 0 117 2a5 5 0 110 9.999"/></symbol><symbol id="icons-arrow-down" viewBox="0 -1.5 10 10"><path d="M3.733 7L.001 1.249 2.485.448 5 3.817 7.515.448 10 1.249l-3.729 5.75L3.733 7z"/></symbol><symbol id="icons-criminality" viewBox="0 0 64 64" xmlns:xlink="http://www.w3.org/1999/xlink"><path fill="#45070F" d="M60 0H4C1.789 0 0 1.789 0 4v56c0 2.211 1.789 4 4 4h56c2.211 0 4-1.789 4-4V4c0-2.211-1.789-4-4-4zM40 39.732c1.562.273 3.104.603 4.605 1.029A18.277 18.277 0 0140 44.068v-4.336zM17 2h4.372A12.034 12.034 0 0017 7.211V2zm0 25.816c.314.112.647.184 1 .184 0 3.932 1.626 7.479 4.236 10.022-1.785.37-3.529.847-5.236 1.407V27.816zM7 62H4a2 2 0 01-2-2v-8c0-1.104.447-2.104 1.172-2.828l-.004-.004A45.768 45.768 0 017 46.408V62zm0-17.949a47.813 47.813 0 00-5 3.498V4a2 2 0 012-2h3v42.051zM15 62H9V45.186a46.19 46.19 0 016-2.909V62zm0-39v17.146a47.702 47.702 0 00-6 2.739V2h6v21zm8 39h-6V41.532c.072-.025.142-.054.214-.078A20.165 20.165 0 0023 45.859V62zm0-18.446a18.267 18.267 0 01-3.648-2.779A43.633 43.633 0 0123 39.927v3.627zm0-7.635A11.945 11.945 0 0120 28v-1a1 1 0 00-1-1h-1a1 1 0 01-1-1v-2a1 1 0 011-1h1a1 1 0 001-1v-2a3.99 3.99 0 013-3.858v20.777zm0-22.829c-2.836.478-5 2.939-5 5.91v-7c0-3.698 2.014-6.921 5-8.65v9.74zM31 62h-6V46.735a19.74 19.74 0 006 1.238V62zm0-16.05a17.658 17.658 0 01-6-1.373v-4.462a13.913 13.913 0 006 1.848v3.987zm0-6.001a11.918 11.918 0 01-6-2.217V14.906a5.99 5.99 0 004-2.593 6.029 6.029 0 002 1.874v25.762zm0-28.329A3.963 3.963 0 0130 9a1 1 0 10-2 0 3.99 3.99 0 01-3 3.858V2.459A10.011 10.011 0 0128 2h3v9.62zM38 62h-5V47.973a19.807 19.807 0 005-.909V62zm0-17.071a17.691 17.691 0 01-5 1.019v-3.984a13.918 13.918 0 005-1.316v4.281zm0-6.548a11.89 11.89 0 01-5 1.568V14.906c.326.056.658.094 1 .094h4v23.381zM38 13h-4c-.348 0-.679-.059-1-.142V2h3c.686 0 1.354.069 2 .201V13zm8 49h-6V46.307a20.076 20.076 0 006-4.093V62zm0-22.875a47.911 47.911 0 00-4.235-1.103A13.951 13.951 0 0046 28v11.125zM46 26h-1a1 1 0 00-1 1v1c0 3.549-1.551 6.729-4 8.926V15a4 4 0 014 4v2a1 1 0 001 1h1v4zm0-7c0-3.313-2.688-6-6-6V2.838c3.53 1.544 6 5.063 6 9.162v7zm0-13.628A12.057 12.057 0 0042.628 2H46v3.372zM54 62h-6V41.897a46.243 46.243 0 016 2.72V62zm0-19.63a47.964 47.964 0 00-6-2.596V27.222c.609-.549 1-1.336 1-2.222v-2c0-.886-.391-1.673-1-2.222V2h6v40.37zM62 55v5a2 2 0 01-2 2h-4V45.77a45.58 45.58 0 014.832 3.398l-.004.004A3.983 3.983 0 0162 52v3zm0-48v40.549a47.698 47.698 0 00-6-4.09V2h4a2 2 0 012 2v3z"/></symbol><symbol id="icons-prosecutors" viewBox="0 0 64 64" xmlns:xlink="http://www.w3.org/1999/xlink"><g fill="#45070F"><path d="M25.882 22.467c.028-.048.298-.467 1.116-.467.808 0 1.096.436 1.111.458a1 1 0 001.778-.916C29.592 20.969 28.651 20 26.998 20c-1.691 0-2.618.984-2.9 1.564-.234.482-.034 1.045.439 1.299.475.254 1.073.068 1.345-.396zM34.539 22.862c.475.255 1.074.068 1.346-.396.027-.047.297-.466 1.115-.466.809 0 1.096.436 1.111.458a1 1 0 001.778-.916C39.594 20.969 38.654 20 37 20c-1.691 0-2.617.983-2.9 1.564a.982.982 0 00.439 1.298z"/><path d="M62.242 47.758l.014-.014a48.23 48.23 0 00-10.838-6.643l-2.355-.99a50.065 50.065 0 00-8.799-2.461c1.385-1.498 2.631-3.353 3.605-5.503a4.977 4.977 0 00-.275 1.569c0 2.757 2.242 5 5 5 2.756 0 5-2.243 5-5a4.977 4.977 0 00-1.598-3.643c1.539-.853 2.598-2.476 2.598-4.357 0-1.907-1.086-3.549-2.66-4.392a4.981 4.981 0 001.557-3.608c0-2.35-1.637-4.313-3.824-4.846C48.209 5.536 41.764 0 34 0h-4c-7.735 0-14.166 5.496-15.652 12.792-2.402.364-4.254 2.423-4.254 4.925 0 1.501.679 2.834 1.73 3.752-1.432.88-2.397 2.447-2.397 4.248 0 1.882 1.058 3.505 2.598 4.357a4.974 4.974 0 00-1.598 3.643c0 2.757 2.243 5 5 5s5-2.243 5-5c0-.504-.097-.98-.236-1.438.974 2.112 2.208 3.937 3.579 5.411-3.2.605-6.121 1.425-8.838 2.443l-2.347.963c-3.979 1.745-7.526 3.953-10.841 6.648l.014.014A5.981 5.981 0 000 52v8c0 2.211 1.789 4 4 4h56c2.211 0 4-1.789 4-4v-8a5.981 5.981 0 00-1.758-4.242zM44.193 31.391c.42-1.019.777-2.1 1.061-3.237.254.448.563.856.938 1.206a5.005 5.005 0 00-1.999 2.031zm1.957-9.283c-.053.051-.105.101-.156.153 0-.079.006-.156.006-.235.049.03.1.055.15.082zm2.444 14.609c-1.654 0-3-1.346-3-3s1.346-3 3-3 3 1.346 3 3-1.346 3-3 3zm1-8c-1.654 0-3-1.346-3-3s1.346-3 3-3 3 1.346 3 3-1.346 3-3 3zm-34.5-14c.319 0 .622.063.911.157 0-.263.14-.664.257-1.417C17.462 6.944 23.14 2 30 2h4c6.834 0 12.494 4.906 13.725 11.383.092.763.164 1.123.16 1.396.16-.027.438-.063.605-.063 1.654 0 3 1.346 3 3s-1.346 3-3 3a2.993 2.993 0 01-2.969-2.689 9.025 9.025 0 00-1.336-2.101l-.043-.049c-.064-.076-.133-.161-.193-.227-.002.003-.004.006-.004.009A7.976 7.976 0 0038 13h-4a4 4 0 01-4-4 1 1 0 10-2 0 4 4 0 01-4 4 6 6 0 00-5.965 5.358l-.01-.016a3.003 3.003 0 01-2.932 2.374c-1.654 0-3-1.346-3-3s1.346-2.999 3.001-2.999zm2.911 7.52c-.096-.099-.205-.182-.309-.272.103-.063.205-.126.303-.196V22c.001.08.006.158.006.237zm-3.578.48c1.654 0 3 1.346 3 3s-1.346 3-3 3-3-1.346-3-3 1.345-3 3-3zm1 14c-1.654 0-3-1.346-3-3s1.346-3 3-3 3 1.346 3 3-1.346 3-3 3zm2.402-7.358c.367-.343.672-.742.923-1.181.267 1.067.598 2.085.984 3.048a5 5 0 00-1.907-1.867zM20 22v-3a4 4 0 014-4 5.99 5.99 0 005-2.687A5.99 5.99 0 0034 15h4c3.313 0 6 2.688 6 6v1c0 12-7.469 18-12 18s-12-6-12-18zm5.677 17.439C27.76 41.084 29.99 42 32 42s4.24-.916 6.324-2.561a45.715 45.715 0 017.965 1.857L32.598 54.988c-.43.43-.748.447-1.183.013L17.711 41.297a45.595 45.595 0 017.966-1.858zM62 60a2 2 0 01-2 2H4a2 2 0 01-2-2v-8c0-1.104.447-2.104 1.172-2.828l-.004-.004a46.01 46.01 0 0112.453-7.133l14.172 14.172c1.5 1.5 2.914 1.5 4.414 0l14.172-14.172a45.969 45.969 0 0112.453 7.133l-.004.004A3.983 3.983 0 0162 52v8z"/></g></symbol><symbol id="icons-question" viewBox="0 0 12 12"><path d="M8.991 1.823a2.339 2.339 0 00-.53-.908C8.211.644 7.873.421 7.459.252 7.05.084 6.538 0 5.936 0c-.468 0-.955.063-1.443.188-.494.124-.936.31-1.311.549l-.314.201.848 2.28.463-.237c.299-.154.575-.268.819-.337a2.78 2.78 0 01.747-.098c.128 0 .298.017.381.092.074.069.09.125.09.188a.53.53 0 01-.134.36 8.234 8.234 0 01-.509.553 9.603 9.603 0 00-.417.443 3.508 3.508 0 00-.391.538c-.115.196-.21.41-.278.634a2.62 2.62 0 00-.11.784c0 .084.001.184.006.29.005.134.02.252.039.358l.071.376h2.612l-.086-.535a.545.545 0 01-.008-.106v-.152c0-.084.017-.164.053-.248a1.73 1.73 0 01.178-.321c.075-.108.159-.21.254-.309.108-.111.211-.218.313-.317.139-.139.282-.288.433-.445a4.04 4.04 0 00.434-.551c.133-.205.241-.425.321-.65.09-.247.136-.521.136-.815a3.051 3.051 0 00-.142-.89zM5.745 8.724c-.417 0-.793.14-1.122.414-.242.203-.529.579-.529 1.224s.287 1.021.529 1.223c.327.274.704.415 1.122.415.415 0 .793-.141 1.12-.416.347-.29.529-.713.529-1.223 0-.509-.183-.933-.529-1.224a1.712 1.712 0 00-1.12-.413z"/></symbol><symbol id="icons-arrow-right" viewBox="0 -1.5 10 10"><path d="M8.5 4.768L2.749 8.5l-.801-2.484L5.317 3.5 1.948.985 2.749-1.5l5.75 3.729.001 2.539z"/></symbol><symbol id="icons-check" viewBox="0 0 12 12"><path d="M12 3.612L9.806 1.419 5.032 6.193 2.193 3.354 0 5.548l2.838 2.839 2.193 2.193 2.195-2.193h-.001z"/></symbol><symbol id="icons-facebook" viewBox="0 0 24 24"><path d="M12 0C5.372 0 0 5.372 0 12c0 6.627 5.372 12 12 12s12-5.373 12-12c0-6.628-5.372-12-12-12zm3.813 6.804h-1.808c-.355 0-.717.37-.717.646v1.842h2.52c-.101 1.412-.307 2.703-.307 2.703h-2.227v8.004H9.961v-8.004H8.346V9.303h1.615V7.1c0-.403-.082-3.1 3.396-3.1h2.456v2.804z"/></symbol><symbol id="icons-youtube" viewBox="0 0 24 24"><path d="M12 0C5.372 0 0 5.372 0 12c0 6.627 5.372 12 12 12 6.626 0 12-5.373 12-12 0-6.628-5.374-12-12-12zm7.999 15.208a2.393 2.393 0 01-2.393 2.392H6.389a2.393 2.393 0 01-2.391-2.392V8.793a2.394 2.394 0 012.391-2.395h11.218A2.394 2.394 0 0120 8.793v6.415z"/><path d="M10.396 14.706l4.571-3.013-4.571-3.012z"/></symbol><symbol id="icons-arrow-up" viewBox="0 -1.5 10 10"><path d="M6.269 0L10 5.75l-2.484.801L5 3.182 2.485 6.551 0 5.75 3.729 0h2.54z"/></symbol><symbol id="icons-magnifier" viewBox="0 0 64 64" xmlns:xlink="http://www.w3.org/1999/xlink"><g fill="#45070F"><path d="M62.242 53.758L51.578 43.094A27.861 27.861 0 0056 28C56 12.536 43.464 0 28 0S0 12.536 0 28c0 15.465 12.536 28 28 28a27.858 27.858 0 0015.093-4.422l10.664 10.664c2.343 2.344 6.142 2.344 8.485 0s2.344-6.141 0-8.484zM28 54C13.64 54 2 42.359 2 28S13.64 2 28 2c14.359 0 26 11.641 26 26S42.359 54 28 54zm32.828 6.828a3.997 3.997 0 01-5.656 0L44.768 50.426a28.188 28.188 0 005.658-5.657l10.402 10.402a4 4 0 010 5.657z"/><path d="M28 4C14.745 4 4 14.745 4 28s10.745 24 24 24 24-10.745 24-24S41.255 4 28 4zm0 46C15.85 50 6 40.15 6 28S15.85 6 28 6s22 9.85 22 22-9.85 22-22 22z"/><path d="M28 11a1 1 0 100 2c8.284 0 15 6.716 15 15a1 1 0 102 0c0-9.389-7.611-17-17-17z"/></g></symbol><symbol id="icons-twitter" viewBox="0 0 24 24"><path d="M15.241.45C8.861-1.34 2.237 2.38.449 8.76c-1.79 6.379 1.932 13 8.312 14.791 6.377 1.791 13-1.931 14.791-8.31C25.34 8.862 21.62 2.239 15.241.45zm2.85 11.845c-1.306 5.284-10.06 7.527-14.088 2.039 1.542 1.473 4.228 1.602 5.932-.159-.998.147-1.725-.833-.497-1.361-1.104.119-1.718-.467-1.969-.964.258-.271.544-.398 1.095-.434-1.207-.285-1.654-.877-1.791-1.594.336-.082.755-.149.984-.119-1.059-.551-1.425-1.384-1.368-2.01 1.891.703 3.095 1.265 4.103 1.807.361.191.76.536 1.212.975.576-1.521 1.287-3.089 2.503-3.866a.854.854 0 01-.239.475 2.396 2.396 0 011.252-.592c-.054.342-.546.535-.844.646.225-.07 1.423-.604 1.554-.3.155.346-.827.506-.993.566a6.703 6.703 0 00-.373.137c1.519-.15 2.97 1.102 3.392 2.655.03.112.061.236.089.367.556.206 1.561-.011 1.885-.21-.234.555-.844.963-1.742 1.037.434.181 1.247.279 1.813.184-.358.382-.933.729-1.91.721z"/></symbol><symbol id="icons-arrow-left" viewBox="0 -1.5 10 10"><path d="M1.5 2.234l5.751-3.732.801 2.484-3.369 2.515 3.369 2.516-.801 2.484-5.75-3.729L1.5 2.234z"/></symbol><symbol id="icons-eu" viewBox="0 0 64 64" xmlns:xlink="http://www.w3.org/1999/xlink"><path d="M18 39.999a2 2 0 00-2 2v4h32v-4a2 2 0 00-2-2h-3v-14h3a1.999 1.999 0 00.993-3.736l-14-8a1.998 1.998 0 00-1.984 0l-14 8A1.998 1.998 0 0018 25.999h3v14h-3zm1-16c-.609 0-.275-.414-.013-.564l12.471-7.125c.345-.198.725-.207 1.047-.022 2.361 1.349 12.203 6.972 12.5 7.144.339.193.651.568-.005.568H19zm22.001 2v14h-2v-14h2zm-4 0v14h-2v-14h2zm-4 0v14h-2v-14h2zm-4.001 0v14h-2v-14h2zm-4 0v14h-2v-14h2zm20.001 16a1 1 0 011 1v1H18v-1a1 1 0 011-1h26.001zM28.686 6.387l-.285 1.751a1.488 1.488 0 002.195 1.541l1.405-.779 1.416.782a1.501 1.501 0 001.58-.095c.463-.333.694-.89.604-1.454l-.285-1.747 1.199-1.229a1.494 1.494 0 00-.849-2.514l-1.589-.242L33.35.85A1.5 1.5 0 0032.001 0a1.5 1.5 0 00-1.351.855l-.726 1.546-1.6.243a1.494 1.494 0 00-.833 2.518l1.195 1.225zm2.597-2.169l.719-1.532.719 1.532 1.67.254-1.211 1.241.278 1.708-1.457-.806-1.458.806.279-1.708-1.21-1.241 1.671-.254zM35.667 56.777l-1.589-.242-.729-1.552a1.5 1.5 0 00-1.348-.85 1.5 1.5 0 00-1.351.855l-.726 1.546-1.595.242a1.487 1.487 0 00-1.183 1 1.484 1.484 0 00.345 1.519l1.193 1.224-.285 1.751a1.492 1.492 0 002.198 1.542l1.405-.777 1.416.782c.49.266 1.113.23 1.573-.092.467-.33.701-.888.611-1.459l-.285-1.746 1.199-1.229c.388-.403.519-.983.34-1.512a1.49 1.49 0 00-1.189-1.002zm-2.487 3.069l.279 1.709-1.458-.806-1.458.806.279-1.709-1.21-1.24 1.67-.254.719-1.532.719 1.532 1.669.254-1.209 1.24zM6.35 36.692a1.519 1.519 0 001.566-.088c.469-.327.706-.884.618-1.464l-.284-1.745 1.198-1.229a1.49 1.49 0 00.342-1.512 1.49 1.49 0 00-1.188-1.001l-1.59-.243-.73-1.555a1.487 1.487 0 00-1.347-.847c-.572 0-1.102.334-1.351.856l-.726 1.546-1.594.243a1.484 1.484 0 00-1.181.991 1.477 1.477 0 00.343 1.526l1.192 1.224-.286 1.757a1.48 1.48 0 00.608 1.445 1.477 1.477 0 001.588.09l1.405-.777 1.417.783zm-2.874-2.261l.279-1.71-1.209-1.239 1.669-.255.719-1.533.72 1.533 1.668.255-1.209 1.239.279 1.71-1.458-.806-1.458.806zM63.923 30.654a1.488 1.488 0 00-1.188-1.001l-1.59-.243-.728-1.551a1.501 1.501 0 00-1.35-.851c-.572 0-1.102.334-1.351.856l-.725 1.545-1.595.243a1.482 1.482 0 00-1.18.986 1.478 1.478 0 00.342 1.531l1.192 1.224-.285 1.757a1.484 1.484 0 00.609 1.447 1.48 1.48 0 001.586.088l1.405-.777 1.411.779a1.521 1.521 0 001.571-.085c.469-.327.706-.884.618-1.464l-.285-1.746 1.198-1.229c.389-.397.521-.975.345-1.509zm-3.677 2.067l.279 1.71-1.458-.806-1.457.806.278-1.71-1.209-1.239 1.67-.255.719-1.533.719 1.533 1.668.255-1.209 1.239zM5.494 20.801l-.286 1.757a1.48 1.48 0 00.608 1.445 1.477 1.477 0 001.588.09l1.405-.777 1.416.782a1.518 1.518 0 001.566-.088 1.49 1.49 0 00.618-1.463l-.286-1.747 1.201-1.229a1.493 1.493 0 00-.85-2.512l-1.588-.242-.73-1.556a1.487 1.487 0 00-1.347-.847c-.575 0-1.104.336-1.351.856l-.726 1.546-1.594.244a1.483 1.483 0 00-1.18.991 1.483 1.483 0 00.343 1.527l1.193 1.223zm2.596-2.167l.72-1.533.719 1.533 1.668.254-1.21 1.239.279 1.71-1.457-.806-1.458.806.279-1.71-1.209-1.239 1.669-.254zM50.685 19.578l1.193 1.224-.284 1.751a1.5 1.5 0 00.607 1.452 1.48 1.48 0 001.585.088l1.407-.777 1.41.779c.488.27 1.126.229 1.571-.085a1.49 1.49 0 00.618-1.463l-.285-1.747 1.2-1.229c.385-.402.515-.979.34-1.511a1.489 1.489 0 00-1.188-1.001l-1.59-.242-.728-1.552c-.246-.517-.775-.851-1.349-.851s-1.103.334-1.352.857l-.724 1.545-1.596.242a1.493 1.493 0 00-.835 2.52zm3.791-.944l.718-1.533.719 1.533 1.668.254-1.209 1.239.279 1.71-1.457-.806-1.457.806.278-1.71-1.209-1.239 1.67-.254zM13.665 44.217a1.496 1.496 0 00-1.19-1.002l-1.588-.242-.73-1.555a1.487 1.487 0 00-1.347-.847c-.575 0-1.104.336-1.351.856l-.726 1.545-1.6.243a1.487 1.487 0 00-1.175.991 1.477 1.477 0 00.343 1.526l1.192 1.224-.286 1.756a1.484 1.484 0 00.608 1.446 1.477 1.477 0 001.588.09l1.405-.778 1.425.788c.5.263 1.117.219 1.562-.096.466-.328.702-.884.614-1.461l-.286-1.746 1.199-1.229c.388-.401.52-.98.343-1.509zm-3.678 2.066l.279 1.709-1.457-.806-1.458.807.279-1.71-1.209-1.24 1.669-.254.72-1.533.719 1.533 1.668.254-1.21 1.24zM58.859 43.215l-1.59-.242-.728-1.551c-.246-.517-.775-.851-1.349-.851s-1.103.334-1.352.857l-.724 1.544-1.601.243a1.486 1.486 0 00-1.175.986 1.478 1.478 0 00.342 1.531l1.193 1.224-.284 1.751a1.489 1.489 0 002.193 1.541l1.406-.778 1.419.786a1.517 1.517 0 001.566-.094c.466-.328.702-.884.614-1.461l-.285-1.746 1.198-1.229c.386-.4.518-.979.342-1.512a1.484 1.484 0 00-1.185-.999zm-2.488 3.068l.279 1.709-1.457-.806-1.457.806.278-1.709-1.21-1.24 1.671-.254.718-1.532.719 1.532 1.669.254-1.21 1.24zM15.181 10.145l-.286 1.757c-.087.569.15 1.126.604 1.442.254.185.555.281.868.281.255 0 .507-.065.724-.188l1.405-.777 1.42.785c.496.265 1.123.22 1.563-.091.464-.324.706-.896.617-1.463l-.285-1.747 1.199-1.228a1.494 1.494 0 00-.848-2.514l-1.589-.242-.729-1.556a1.503 1.503 0 00-1.347-.846 1.5 1.5 0 00-1.351.855l-.726 1.548-1.6.243a1.49 1.49 0 00-1.175.99 1.478 1.478 0 00.343 1.527l1.193 1.224zm2.597-2.167l.719-1.533.719 1.533 1.669.254-1.21 1.239.279 1.71-1.457-.806-1.458.806.279-1.71-1.209-1.239 1.669-.254zM42.19 10.145l-.284 1.752a1.498 1.498 0 00.606 1.451c.254.182.554.277.865.277.256 0 .508-.066.723-.188l1.405-.777 1.405.777a1.51 1.51 0 001.58-.085c.466-.328.702-.884.614-1.461l-.285-1.747 1.198-1.228a1.494 1.494 0 00-.847-2.514l-1.59-.242-.728-1.552c-.246-.517-.775-.85-1.349-.85s-1.103.333-1.352.856l-.724 1.545-1.597.245a1.488 1.488 0 00-1.175.985 1.48 1.48 0 00.342 1.532l1.193 1.224zm2.598-2.167l.718-1.533.719 1.533 1.668.254-1.209 1.239.279 1.71-1.457-.806-1.457.806.278-1.71-1.209-1.239 1.67-.254zM22.162 52.902l-1.589-.242-.73-1.558a1.505 1.505 0 00-1.346-.844 1.5 1.5 0 00-1.351.855l-.726 1.547-1.6.243a1.486 1.486 0 00-1.174.989 1.476 1.476 0 00.342 1.528l1.192 1.224-.285 1.756a1.484 1.484 0 00.608 1.446 1.482 1.482 0 001.588.09l1.405-.777 1.42.785a1.516 1.516 0 001.566-.093 1.49 1.49 0 00.613-1.461l-.285-1.746 1.199-1.229a1.493 1.493 0 00-.847-2.513zm-2.488 3.069l.279 1.709-1.457-.806-1.458.806.279-1.709-1.209-1.24 1.669-.254.719-1.533.719 1.533 1.669.254-1.21 1.24zM49.172 52.902l-1.59-.242-.729-1.554c-.247-.515-.776-.848-1.348-.848s-1.101.333-1.352.856l-.724 1.545-1.601.243a1.495 1.495 0 00-.833 2.517l1.193 1.224-.284 1.751c-.09.566.145 1.124.61 1.454a1.478 1.478 0 001.584.087l1.405-.777 1.405.777c.488.27 1.104.245 1.583-.087.464-.328.699-.884.611-1.459l-.285-1.746 1.198-1.229a1.492 1.492 0 00-.843-2.512zm-2.488 3.069l.279 1.709-1.457-.806-1.457.806.278-1.709-1.21-1.24 1.671-.254.718-1.533.719 1.533 1.669.254-1.21 1.24z"/></symbol><symbol id="icons-times" viewBox="0 0 12 12"><path d="M11 3.395L8.605 1 6 3.605 3.395 1 1 3.395 3.605 6 1 8.605 3.395 11 6 8.395 8.605 11 11 8.605 8.395 6z"/></symbol><symbol id="icons-general-office" viewBox="0 0 64 64" xmlns:xlink="http://www.w3.org/1999/xlink"><g fill="#45070F"><path d="M60 58a4 4 0 00-4-4h-2V25h6a4 4 0 002.077-7.419l-28-17a3.997 3.997 0 00-4.153 0l-28 17A3.999 3.999 0 004 25h6v29H8a4 4 0 00-4 4 4 4 0 00-4 4v2h64v-2a4 4 0 00-4-4zM4 23a2.006 2.006 0 01-1.926-1.462 2.004 2.004 0 01.888-2.247L30.963 2.29a1.994 1.994 0 012.075.001l28.001 17a2.003 2.003 0 01.887 2.248A2.006 2.006 0 0160 23H4zm48 2v29h-4V25h4zm-6 0v29h-4V25h4zm-6 0v29h-4V25h4zm-6 0v29h-4V25h4zm-6 0v29h-4V25h4zm-6 0v29h-4V25h4zm-6 0v29h-4V25h4zM8 56h48a2 2 0 012 2H6a2 2 0 012-2zm-6 6a2 2 0 012-2h56a2 2 0 012 2H2z"/><path d="M32 9c-2.762 0-5 2.238-5 5s2.238 5 5 5 5-2.238 5-5-2.238-5-5-5zm0 8a3 3 0 110-6 3 3 0 010 6z"/></g></symbol></svg>
