<?xml version="1.0" encoding="UTF-8"?> <!-- Generator: Adobe Illustrator 23.0.1, SVG Export Plug-In . SVG Version: 6.00 Build 0) --> <svg xmlns="http://www.w3.org/2000/svg" xmlns:xlink="http://www.w3.org/1999/xlink" id="Layer_1" x="0px" y="0px" viewBox="0 0 470.55 470.55" style="enable-background:new 0 0 470.55 470.55;" xml:space="preserve"> <style type="text/css"> .st0{fill:#EE4023;} </style> <g> <path class="st0" d="M97.47,236.34l0.75,0.13c0.09,0.02,0.18,0.02,0.26,0.02c0.74,0,1.39-0.53,1.52-1.28 c0.15-0.84-0.42-1.64-1.26-1.79l-0.77-0.13c-0.85-0.15-1.64,0.43-1.78,1.27C96.06,235.4,96.63,236.2,97.47,236.34"></path> <path class="st0" d="M102.72,237.34l0.74,0.16c0.11,0.03,0.23,0.04,0.34,0.04c0.71,0,1.35-0.49,1.51-1.21 c0.18-0.84-0.34-1.66-1.17-1.85l-0.77-0.17c-0.84-0.19-1.66,0.35-1.84,1.19C101.36,236.34,101.89,237.16,102.72,237.34"></path> <path class="st0" d="M107.9,238.6l0.74,0.2c0.14,0.04,0.28,0.06,0.42,0.06c0.68,0,1.3-0.45,1.49-1.13 c0.23-0.82-0.25-1.68-1.07-1.91l-0.76-0.21c-0.83-0.23-1.68,0.26-1.9,1.09C106.59,237.53,107.08,238.38,107.9,238.6"></path> <path class="st0" d="M86.86,235.08l0.76,0.06c0.04,0,0.08,0,0.12,0c0.8,0,1.48-0.62,1.54-1.43c0.07-0.85-0.57-1.6-1.42-1.66 L87.08,232c-0.86-0.08-1.59,0.58-1.65,1.43C85.37,234.29,86.01,235.03,86.86,235.08"></path> <path class="st0" d="M92.19,235.59l0.75,0.09c0.06,0.01,0.13,0.01,0.19,0.01c0.77,0,1.44-0.57,1.53-1.36 c0.11-0.85-0.5-1.62-1.34-1.73l-0.79-0.1c-0.84-0.09-1.62,0.52-1.71,1.37S91.34,235.5,92.19,235.59"></path> <path class="st0" d="M122.85,244.14l0.68,0.33c0.22,0.11,0.46,0.16,0.69,0.16c0.57,0,1.11-0.31,1.39-0.85 c0.38-0.76,0.07-1.69-0.69-2.08l-0.71-0.35c-0.77-0.37-1.7-0.05-2.07,0.72C121.76,242.84,122.08,243.77,122.85,244.14"></path> <path class="st0" d="M113.01,240.15l0.72,0.24c0.17,0.06,0.33,0.08,0.5,0.08c0.64,0,1.25-0.4,1.46-1.05 c0.28-0.81-0.16-1.69-0.96-1.96l-0.75-0.25c-0.81-0.26-1.69,0.17-1.96,0.98C111.76,239,112.2,239.88,113.01,240.15"></path> <path class="st0" d="M127.51,246.65l0.65,0.39c0.25,0.15,0.53,0.22,0.8,0.22c0.52,0,1.04-0.27,1.33-0.75 c0.44-0.73,0.21-1.68-0.52-2.13l-0.68-0.41c-0.73-0.43-1.68-0.19-2.12,0.55C126.53,245.27,126.77,246.22,127.51,246.65"></path> <path class="st0" d="M132.53,249.98c0.28,0.21,0.6,0.31,0.93,0.31c0.47,0,0.94-0.21,1.24-0.62c0.51-0.68,0.37-1.65-0.31-2.16 c-0.21-0.16-0.43-0.32-0.65-0.48c-0.69-0.5-1.66-0.34-2.16,0.35c-0.5,0.69-0.34,1.66,0.35,2.16L132.53,249.98z"></path> <path class="st0" d="M81.53,234.81l0.76,0.02c0.02,0,0.04,0,0.06,0c0.83,0,1.52-0.66,1.55-1.49c0.03-0.85-0.64-1.57-1.49-1.6 l-0.79-0.03c-0.88,0-1.56,0.66-1.58,1.51C79.99,234.08,80.67,234.79,81.53,234.81"></path> <path class="st0" d="M118,241.99l0.7,0.29c0.19,0.08,0.39,0.12,0.59,0.12c0.61,0,1.18-0.36,1.43-0.95c0.33-0.79-0.05-1.7-0.84-2.02 l-0.73-0.3c-0.8-0.32-1.69,0.06-2.01,0.86C116.82,240.77,117.21,241.67,118,241.99"></path> <path class="st0" d="M19.67,250.86c0.32,0,0.63-0.09,0.91-0.29l0.61-0.43c0.7-0.49,0.87-1.45,0.38-2.16 c-0.49-0.7-1.45-0.87-2.16-0.38l-0.65,0.46c-0.69,0.5-0.85,1.47-0.35,2.16C18.71,250.63,19.19,250.86,19.67,250.86"></path> <path class="st0" d="M44.07,239.41c0.15,0,0.3-0.02,0.45-0.07l0.72-0.21c0.82-0.24,1.3-1.09,1.06-1.91 c-0.23-0.82-1.09-1.29-1.91-1.07l-0.76,0.22c-0.82,0.24-1.28,1.11-1.04,1.93C42.79,238.98,43.41,239.41,44.07,239.41"></path> <path class="st0" d="M28.95,245.28c0.23,0,0.47-0.05,0.69-0.16l0.68-0.34c0.77-0.37,1.09-1.3,0.71-2.07 c-0.37-0.77-1.3-1.09-2.07-0.72l-0.71,0.35c-0.76,0.38-1.07,1.31-0.69,2.08C27.83,244.97,28.38,245.28,28.95,245.28"></path> <path class="st0" d="M38.92,241.07c0.17,0,0.35-0.03,0.52-0.09l0.72-0.25c0.81-0.28,1.24-1.16,0.96-1.97 c-0.28-0.81-1.17-1.23-1.97-0.96l-0.74,0.26c-0.81,0.28-1.23,1.17-0.94,1.98C37.68,240.68,38.28,241.07,38.92,241.07"></path> <path class="st0" d="M33.87,243.02c0.2,0,0.4-0.04,0.6-0.12l0.7-0.29c0.79-0.32,1.17-1.23,0.84-2.02 c-0.33-0.79-1.23-1.17-2.02-0.84l-0.73,0.3c-0.79,0.33-1.16,1.24-0.83,2.03C32.69,242.67,33.26,243.02,33.87,243.02"></path> <path class="st0" d="M24.19,247.89c0.27,0,0.55-0.07,0.8-0.22l0.64-0.38c0.74-0.43,0.99-1.38,0.56-2.11 c-0.43-0.74-1.38-0.99-2.12-0.56l-0.69,0.41c-0.73,0.44-0.97,1.39-0.53,2.13C23.16,247.62,23.67,247.89,24.19,247.89"></path> <path class="st0" d="M76.14,234.77h0.02l0.76-0.01c0.85,0,1.54-0.7,1.54-1.56c-0.01-0.85-0.7-1.54-1.55-1.54h-0.01l-0.78,0.01 c-0.85,0.01-1.54,0.71-1.53,1.56C74.61,234.08,75.3,234.77,76.14,234.77"></path> <path class="st0" d="M49.31,238.02c0.12,0,0.24-0.01,0.37-0.04l0.74-0.18c0.83-0.2,1.35-1.03,1.16-1.86 c-0.2-0.83-1.03-1.34-1.86-1.15l-0.76,0.18c-0.83,0.2-1.34,1.04-1.14,1.87C47.98,237.54,48.61,238.02,49.31,238.02"></path> <path class="st0" d="M59.95,236c0.07,0,0.15-0.01,0.22-0.02l0.76-0.11c0.85-0.11,1.44-0.89,1.33-1.74 c-0.11-0.85-0.91-1.44-1.74-1.33l-0.78,0.11c-0.85,0.12-1.43,0.9-1.31,1.75C58.53,235.44,59.19,236,59.95,236"></path> <path class="st0" d="M65.33,235.36c0.05,0,0.1,0,0.16-0.01l0.76-0.07c0.85-0.08,1.47-0.83,1.39-1.68c-0.08-0.85-0.84-1.51-1.68-1.4 l-0.78,0.07c-0.85,0.09-1.47,0.84-1.39,1.69C63.87,234.76,64.54,235.36,65.33,235.36"></path> <path class="st0" d="M70.73,234.95c0.03,0,0.06,0,0.09,0l0.76-0.04c0.85-0.04,1.51-0.76,1.47-1.62c-0.04-0.85-0.76-1.52-1.62-1.47 l-0.79,0.04c-0.85,0.05-1.5,0.78-1.45,1.64C69.23,234.31,69.92,234.95,70.73,234.95"></path> <path class="st0" d="M54.6,236.88c0.1,0,0.2-0.01,0.29-0.03l0.75-0.14c0.84-0.15,1.4-0.96,1.24-1.8c-0.15-0.84-0.96-1.41-1.8-1.24 l-0.77,0.14c-0.84,0.16-1.39,0.97-1.23,1.81C53.23,236.37,53.88,236.88,54.6,236.88"></path> <path class="st0" d="M139.92,252.32c5.15-4.33,8-9.19,8.22-14.14c0.36-8.19-6.16-15.76-18.43-21.58 c8.63-2.89,17.37-7.41,17.59-13.91c0.07-2.23-0.88-4.39-2.84-6.41c-8.67-8.96-36.69-14.98-69.72-14.98c-0.72,0-1.44,0-2.16,0.01 c-34.44,0.28-71.28,7.84-71.73,21.29c-0.24,7.1,9.58,11.87,19.28,14.84c-11.59,5.68-18.1,12.91-18.44,20.62 c-0.26,5.88,3.1,11.54,9.72,16.46c-5.47,5.84-8.55,12.38-8.87,19.01c-0.36,7.38,2.63,14.62,8.65,20.95 c12.36,12.98,36.35,21.05,62.59,21.05c40.34,0,74.07-18.77,75.21-41.85C149.35,266.1,146.22,258.76,139.92,252.32 M3.94,202.68 c0.29-8.57,27.94-17.96,68.66-18.29c0.71-0.01,1.42-0.01,2.13-0.01c31.75,0,59.5,5.77,67.5,14.04c1.35,1.4,2.02,2.8,1.97,4.16 c-0.14,4.21-7.17,8.73-18.82,12.12l-0.23-0.09c-0.72-0.29-1.5,0.03-1.88,0.68c-13.47,3.61-31.08,5.6-49.87,5.6 c-15.98,0-31.24-1.47-43.61-4.16l0.27-0.09c0.81-0.28,1.23-1.17,0.94-1.98c-0.28-0.8-1.17-1.22-1.97-0.94l-0.73,0.26 c-0.81,0.29-1.23,1.17-0.94,1.98c0.03,0.1,0.09,0.17,0.14,0.26c-0.85-0.2-1.69-0.41-2.51-0.63 C11.65,212.09,3.78,207.27,3.94,202.68 M4.78,238.18c0.32-7.19,7.4-14.09,19.96-19.47c13.28,3.4,30.53,5.27,48.67,5.27 c19.57,0,37.93-2.13,51.79-6.01c12.94,5.38,20.17,12.67,19.85,20.07c-0.18,4.17-2.78,8.36-7.47,12.2 c-0.58-0.21-1.25-0.08-1.68,0.41c-0.3,0.33-0.42,0.75-0.39,1.16c-12.94,9.17-36.43,14.84-61.91,14.84 c-23.31,0-44.53-4.71-57.37-12.65c0.08-0.05,0.17-0.08,0.25-0.15l0.56-0.49c0.65-0.56,0.72-1.54,0.16-2.18 c-0.56-0.65-1.53-0.72-2.18-0.16l-0.6,0.53c-0.29,0.26-0.45,0.61-0.49,0.97C9.44,249.32,4.5,244.39,4.78,238.18 M73.77,312.42 c-25.42,0-48.55-7.7-60.35-20.09c-5.42-5.7-8.13-12.16-7.8-18.67c0.3-6.02,3.21-12.02,8.38-17.41 c13.27,8.46,35.38,13.49,59.59,13.49c26.16,0,50.4-5.92,63.83-15.51c5.85,5.88,8.79,12.51,8.46,19.27 C144.83,294.96,112.48,312.42,73.77,312.42"></path> <path class="st0" d="M87.49,209.94l0.77,0.05c0.04,0,0.07,0,0.11,0c0.81,0,1.48-0.62,1.54-1.44c0.06-0.85-0.58-1.59-1.44-1.65 l-0.78-0.05c-0.86-0.07-1.59,0.59-1.65,1.44C86,209.15,86.64,209.88,87.49,209.94"></path> <path class="st0" d="M98.16,211.03l0.76,0.11c0.07,0.01,0.15,0.01,0.22,0.01c0.76,0,1.42-0.56,1.53-1.33 c0.12-0.85-0.47-1.63-1.31-1.75l-0.77-0.11c-0.84-0.12-1.63,0.47-1.75,1.32C96.72,210.12,97.31,210.91,98.16,211.03"></path> <path class="st0" d="M93.77,210.48c0.78,0,1.45-0.59,1.54-1.38c0.09-0.85-0.53-1.61-1.38-1.7l-0.77-0.08l-0.25,3.09l0.7,0.07 C93.66,210.48,93.71,210.48,93.77,210.48"></path> <path class="st0" d="M119.02,215.68l0.72,0.24c0.16,0.05,0.33,0.08,0.49,0.08c0.65,0,1.25-0.41,1.47-1.05 c0.27-0.81-0.16-1.69-0.98-1.96l-0.75-0.25c-0.81-0.26-1.68,0.18-1.95,0.99C117.76,214.55,118.2,215.42,119.02,215.68"></path> <path class="st0" d="M103.45,211.86l0.76,0.14c0.09,0.02,0.19,0.02,0.28,0.02c0.73,0,1.38-0.52,1.52-1.27 c0.15-0.84-0.41-1.65-1.24-1.8l-0.76-0.14c-0.85-0.16-1.65,0.41-1.8,1.25C102.05,210.9,102.61,211.7,103.45,211.86"></path> <path class="st0" d="M113.9,214.17l0.73,0.2c0.14,0.04,0.28,0.06,0.41,0.06c0.68,0,1.3-0.45,1.49-1.13 c0.23-0.82-0.25-1.68-1.08-1.91l-0.76-0.21c-0.82-0.22-1.67,0.27-1.89,1.1C112.59,213.1,113.08,213.95,113.9,214.17"></path> <path class="st0" d="M82.13,209.67l0.77,0.03c0.02,0,0.04,0,0.06,0c0.83,0,1.51-0.65,1.55-1.49c0.03-0.85-0.63-1.57-1.49-1.61 l-0.78-0.03c-0.88-0.02-1.57,0.64-1.6,1.49C80.61,208.92,81.28,209.64,82.13,209.67"></path> <path class="st0" d="M108.7,212.9l0.75,0.17c0.11,0.02,0.23,0.04,0.34,0.04c0.71,0,1.35-0.49,1.51-1.21 c0.19-0.83-0.33-1.66-1.17-1.85l-0.76-0.17c-0.83-0.18-1.66,0.34-1.85,1.17C107.34,211.88,107.87,212.71,108.7,212.9"></path> <path class="st0" d="M60.54,210.29c0.05,0,0.09,0,0.14-0.01l0.76-0.07c0.85-0.07,1.48-0.83,1.41-1.68 c-0.07-0.85-0.81-1.47-1.68-1.41l-0.77,0.07c-0.85,0.08-1.48,0.83-1.4,1.68C59.08,209.68,59.75,210.29,60.54,210.29"></path> <path class="st0" d="M49.8,211.67c0.08,0,0.17-0.01,0.25-0.02l0.76-0.12c0.84-0.13,1.42-0.93,1.28-1.77 c-0.13-0.85-0.94-1.43-1.77-1.28l-0.77,0.12c-0.85,0.14-1.42,0.93-1.28,1.78C48.4,211.13,49.05,211.67,49.8,211.67"></path> <path class="st0" d="M44.47,212.65c0.1,0,0.2-0.01,0.31-0.03l0.76-0.15c0.84-0.17,1.38-0.98,1.21-1.82 c-0.17-0.84-0.98-1.38-1.82-1.21l-0.76,0.15c-0.84,0.17-1.38,0.98-1.21,1.82C43.1,212.14,43.75,212.65,44.47,212.65"></path> <path class="st0" d="M33.96,215.28c0.15,0,0.29-0.02,0.44-0.06l0.74-0.22c0.82-0.24,1.29-1.1,1.05-1.92 c-0.24-0.82-1.09-1.29-1.92-1.05l-0.75,0.22c-0.82,0.24-1.29,1.1-1.05,1.92C32.68,214.84,33.3,215.28,33.96,215.28"></path> <path class="st0" d="M76.77,209.57l0.76,0h0.01c0.85,0,1.54-0.68,1.55-1.53c0.01-0.85-0.68-1.55-1.53-1.56l-0.78-0.01h-0.01 c-0.85,0-1.55,0.69-1.55,1.54C75.22,208.87,75.91,209.56,76.77,209.57"></path> <path class="st0" d="M39.19,213.85c0.12,0,0.25-0.01,0.37-0.05l0.75-0.18c0.83-0.2,1.34-1.04,1.14-1.87 c-0.2-0.83-1.04-1.34-1.87-1.14l-0.76,0.19c-0.83,0.2-1.34,1.04-1.13,1.87C37.86,213.37,38.49,213.85,39.19,213.85"></path> <path class="st0" d="M71.35,209.63h0.04l0.77-0.02c0.85-0.02,1.53-0.73,1.51-1.58c-0.02-0.84-0.71-1.51-1.55-1.51 c-0.01,0-0.03,0-0.04,0l-0.78,0.02c-0.85,0.02-1.53,0.73-1.51,1.59C69.83,208.97,70.52,209.63,71.35,209.63"></path> <path class="st0" d="M55.16,210.88c0.07,0,0.13,0,0.2-0.01l0.76-0.1c0.85-0.1,1.45-0.88,1.35-1.73c-0.11-0.85-0.87-1.45-1.73-1.34 l-0.77,0.1c-0.85,0.11-1.45,0.88-1.34,1.73C53.72,210.31,54.39,210.88,55.16,210.88"></path> <path class="st0" d="M65.94,209.87c0.03,0,0.06,0,0.09,0l0.77-0.04c0.85-0.05,1.51-0.78,1.46-1.63c-0.05-0.85-0.76-1.49-1.63-1.46 l-0.78,0.05c-0.85,0.05-1.51,0.78-1.46,1.64C64.45,209.24,65.13,209.87,65.94,209.87"></path> <path class="st0" d="M22.34,175.41c13.6,1.8,31.68,2.8,50.89,2.8s37.28-0.99,50.89-2.8c22.34-2.96,22.34-6.67,22.34-8.26 c0-1.58,0-5.29-22.34-8.26c-13.6-1.81-31.68-2.8-50.89-2.8c-19.21,0-37.28,0.99-50.89,2.8C0,161.86,0,165.57,0,167.15 C0,168.73,0,172.45,22.34,175.41 M73.23,159.19c44.38,0,68.71,5.07,70.11,7.96c-1.41,2.89-25.74,7.96-70.11,7.96 c-44.7,0-69.06-5.14-70.14-7.9C4.17,164.33,28.53,159.19,73.23,159.19"></path> <path class="st0" d="M190.27,211.78l-6.21,1.73v6.06H181v3.97h3.05v16.35c0,3.82,2.14,7.44,7.54,7.44c1.48,0,2.6-0.3,3.16-0.56 v-3.87c-0.51,0.15-0.92,0.26-1.48,0.26c-2.14,0-3-1.43-3-3.56v-16.05h4.48v-3.97h-4.48V211.78z"></path> <path class="st0" d="M198.67,221.05v25.97h6.21v-23.17c1.43-0.81,3.72-0.92,5.81-0.2l1.22-4.53 C204.99,218.91,201.52,219.68,198.67,221.05"></path> <path class="st0" d="M223.42,219.06c-4.33,0-7.64,1.22-9.42,2.09l1.42,3.57c1.68-0.81,4.23-1.68,6.88-1.68 c3.21,0,5.45,0.97,5.45,4.53v1.48c-8.35,0.81-15.33,2.9-15.33,10.14c0,5.3,3.72,8.35,11.2,8.35c4.28,0,7.74-0.81,9.93-1.99v-17.01 C233.55,221.46,229.07,219.06,223.42,219.06 M227.75,243.31c-0.92,0.46-2.29,0.76-3.72,0.76c-3.62,0-5.75-1.53-5.75-5.09 c0-4.99,3.62-6.26,9.47-6.98V243.31z"></path> <path class="st0" d="M249.64,219.06c-4.64,0-8.15,0.76-10.75,1.99v25.97h6.21v-23.27c1.17-0.46,2.24-0.76,4.28-0.76 c3.92,0,4.94,2.34,4.94,4.58v19.46h6.21v-19.56C260.54,223.04,257.84,219.06,249.64,219.06"></path> <path class="st0" d="M275,231.03c-2.39-0.97-4.07-2.09-4.07-4.33c0-1.94,1.37-3.62,3.92-3.62c1.94,0,3.57,0.87,4.38,1.53l1.53-3.61 c-1.78-1.17-4.07-1.94-7.13-1.94c-5.24,0-8.71,3.56-8.71,7.94c0,2.85,1.07,5.7,6.26,7.69c2.8,1.07,4.02,2.19,4.02,4.53 c0,2.24-1.68,3.87-4.23,3.87c-2.24,0-4.13-0.76-5.14-1.58l-1.63,3.97c1.63,1.12,4.38,1.99,7.59,1.99c6.01,0,9.78-3.87,9.78-8.35 C281.57,235.92,280.35,233.17,275,231.03"></path> <path class="st0" d="M295.27,219.07c-4.38,0-7.44,0.86-9.52,1.98v36.92h6.16v-11.15c0.92,0.36,2.55,0.56,4.13,0.56 c7.18,0,12.07-5.45,12.07-14.41C308.11,224.21,303.27,219.07,295.27,219.07 M294.66,243.66c-1.12,0-2.04-0.15-2.75-0.46v-19.86 c0.87-0.36,1.83-0.56,3.21-0.56c5.04,0,6.83,3.82,6.83,10.39C301.94,239.84,299.55,243.66,294.66,243.66"></path> <path class="st0" d="M322.11,219.06c-4.33,0-7.64,1.22-9.42,2.09l1.42,3.57c1.68-0.81,4.23-1.68,6.88-1.68 c3.21,0,5.45,0.97,5.45,4.53v1.48c-8.35,0.81-15.33,2.9-15.33,10.14c0,5.3,3.72,8.35,11.2,8.35c4.28,0,7.74-0.81,9.93-1.99v-17.01 C332.24,221.46,327.76,219.06,322.11,219.06 M326.44,243.31c-0.92,0.46-2.29,0.76-3.72,0.76c-3.62,0-5.75-1.53-5.75-5.09 c0-4.99,3.62-6.26,9.47-6.98V243.31z"></path> <path class="st0" d="M337.59,221.05v25.97h6.21v-23.17c1.43-0.81,3.72-0.92,5.81-0.2l1.22-4.53 C343.9,218.91,340.44,219.68,337.59,221.05"></path> <path class="st0" d="M363.51,219.06c-7.18,0-11.71,5.2-11.71,14.16c0,9.27,4.94,14.31,12.73,14.31c4.18,0,7.13-0.87,9.07-1.94 l-1.48-3.92c-1.48,0.76-3.77,1.53-6.92,1.53c-4.53,0-6.98-2.55-7.49-7.64l16.81-2.45C374.76,223.9,370.79,219.06,363.51,219.06 M357.34,232.41c-0.15-6.57,2.34-9.52,5.96-9.52c3.41,0,5.4,2.24,5.4,7.79L357.34,232.41z"></path> <path class="st0" d="M389.63,219.06c-4.64,0-8.15,0.76-10.75,1.99v25.97h6.21v-23.27c1.17-0.46,2.24-0.76,4.28-0.76 c3.92,0,4.94,2.34,4.94,4.58v19.46h6.21v-19.56C400.53,223.04,397.83,219.06,389.63,219.06"></path> <path class="st0" d="M413.45,211.78l-6.21,1.73v6.06h-3.06v3.97h3.06v16.35c0,3.82,2.14,7.44,7.54,7.44c1.48,0,2.6-0.3,3.16-0.56 v-3.87c-0.51,0.15-0.92,0.26-1.48,0.26c-2.14,0-3-1.43-3-3.56v-16.05h4.48v-3.97h-4.48V211.78z"></path> <path class="st0" d="M432.6,219.06c-4.64,0-8.15,0.76-10.75,1.99v25.97h6.21v-23.27c1.17-0.46,2.24-0.76,4.28-0.76 c3.92,0,4.94,2.34,4.94,4.58v19.46h6.21v-19.56C443.5,223.04,440.8,219.06,432.6,219.06"></path> <path class="st0" d="M461.22,243.2c-4.53,0-6.98-2.55-7.49-7.64l16.81-2.44c0.25-9.22-3.72-14.06-11-14.06 c-7.18,0-11.71,5.2-11.71,14.16c0,9.27,4.94,14.31,12.73,14.31c4.17,0,7.13-0.87,9.06-1.94l-1.48-3.92 C466.67,242.44,464.38,243.2,461.22,243.2 M459.33,222.88c3.41,0,5.4,2.24,5.4,7.79l-11.36,1.73 C453.22,225.84,455.72,222.88,459.33,222.88"></path> <path class="st0" d="M466.67,209.64c-0.56-1.48-4.02-1.38-6.06-0.15l-3.56,7.18h3.46L466.67,209.64z"></path> <polygon class="st0" points="183.09,191.86 187.77,191.86 187.77,175.3 198.11,175.3 198.11,172.2 187.77,172.2 187.77,159.97 199.28,159.97 199.28,156.82 183.09,156.82 "></polygon> <path class="st0" d="M212.42,163.9c-7.39,0-10.7,6.06-10.7,14.26c0,8.05,3.26,14.21,10.75,14.21c7.44,0,10.7-6.16,10.7-14.21 C223.16,169.95,219.95,163.9,212.42,163.9 M212.47,189.26c-5.14,0-6.26-5.55-6.26-11.1c0-5.55,1.02-11.41,6.26-11.41 c5.25,0,6.21,5.91,6.21,11.41C218.68,183.66,217.71,189.26,212.47,189.26"></path> <path class="st0" d="M238.08,163.9c-4.38,0-7.59,0.76-10.03,1.94v26.02h4.48v-24.09c1.43-0.61,2.65-0.97,5.19-0.97 c4.69,0,5.75,2.8,5.75,5.35v19.71h4.48v-19.81C247.96,168.12,245.72,163.9,238.08,163.9"></path> <path class="st0" d="M269.1,164.76c-1.48-0.41-2.8-0.61-4.33-0.61c-7.08,0-11.92,5.3-11.92,14.41c0,8.3,4.23,13.8,12.07,13.8 c3.82,0,6.77-0.81,8.61-1.94v-38.55h-4.43V164.76z M269.1,188.65c-0.87,0.56-2.14,0.76-3.97,0.76c-5.6,0-7.84-4.74-7.84-11.2 c0-5.96,2.04-11.46,8.41-11.46c1.17,0,2.29,0.2,3.41,0.51V188.65z"></path> <path class="st0" d="M300.82,163.9c-3.92,0-6.72,0.86-8.56,1.94v36.97h4.43v-11.2c1.02,0.36,2.7,0.66,4.28,0.66 c7.23,0,11.97-5.45,11.97-14.57C312.94,169.29,308.56,163.9,300.82,163.9 M300.05,189.51c-1.38,0-2.5-0.25-3.36-0.61v-21.54 c1.07-0.46,2.24-0.76,3.92-0.76c5.81,0,7.84,4.33,7.84,11.31C308.46,185.18,305.61,189.51,300.05,189.51"></path> <path class="st0" d="M317.83,165.88v25.97h4.48v-23.99c1.48-0.97,4.03-1.17,6.27-0.51l1.07-3.41 C323.12,163.79,320.52,164.51,317.83,165.88"></path> <path class="st0" d="M343.79,189.11c-4.94,0-7.84-3.06-8.35-9.27l17.26-2.5c0.1-9.17-3.87-13.44-10.44-13.44 c-6.47,0-11.05,4.84-11.05,14.16c0,9.78,5.04,14.31,12.22,14.31c3.72,0,6.62-0.87,8.3-1.89l-1.17-2.95 C349.14,188.34,346.9,189.11,343.79,189.11 M342.11,166.8c3.92,0,6.32,2.44,6.32,8.66l-13.14,1.99 C335.18,170.01,338.14,166.8,342.11,166.8"></path> <path class="st0" d="M191.07,284.93c-2.94-1.17-5.37-2.57-5.37-5.88c0-3.41,1.91-5.65,5.32-5.65c2.15,0,3.97,0.79,5.09,1.49 l1.03-2.71c-1.4-0.98-3.64-1.73-6.58-1.73c-5.6,0-9.06,4.15-9.06,9.01c0,3.13,1.45,6.44,6.82,8.59c4.02,1.59,5.6,3.32,5.6,6.17 c0,3.64-2.34,6.02-6.02,6.02c-2.57,0-4.39-0.75-5.6-1.49l-1.12,2.99c1.68,1.07,3.83,1.77,7.47,1.77c5.65,0,9.71-3.92,9.71-9.52 C198.36,291.14,197.42,287.4,191.07,284.93"></path> <rect x="203.3" y="266.39" class="st0" width="4.11" height="36.65"></rect> <path class="st0" d="M222.02,277.41c-6.77,0-9.81,5.56-9.81,13.07c0,7.38,2.99,13.03,9.85,13.03c6.82,0,9.8-5.65,9.8-13.03 C231.87,282.97,228.93,277.41,222.02,277.41 M222.07,300.66c-4.72,0-5.74-5.09-5.74-10.18c0-5.09,0.93-10.46,5.74-10.46 c4.81,0,5.7,5.42,5.7,10.46C227.77,295.52,226.88,300.66,222.07,300.66"></path> <path class="st0" d="M244.88,295.9c-0.51,1.73-0.61,3.08-0.61,3.08h-0.1c0,0-0.14-1.4-0.65-3.08l-5.28-18.02h-4.39l8.36,25.16h3.69 l8.17-25.16h-3.83L244.88,295.9z"></path> <path class="st0" d="M266.07,277.41c-5.93,0-10.13,4.44-10.13,12.98c0,8.97,4.62,13.12,11.2,13.12c3.41,0,6.07-0.79,7.61-1.73 l-1.07-2.71c-1.31,0.75-3.36,1.45-6.21,1.45c-4.53,0-7.19-2.8-7.66-8.5l15.83-2.29C275.73,281.33,272.09,277.41,266.07,277.41 M259.67,289.83c-0.09-6.82,2.62-9.76,6.26-9.76c3.59,0,5.79,2.24,5.79,7.94L259.67,289.83z"></path> <path class="st0" d="M289.31,277.41c-4.02,0-6.96,0.7-9.2,1.78v23.86h4.11v-22.08c1.31-0.56,2.43-0.89,4.76-0.89 c4.29,0,5.27,2.57,5.27,4.9v18.07h4.11v-18.16C298.37,281.28,296.32,277.41,289.31,277.41"></path> <path class="st0" d="M311.06,288.66c-2.43-0.93-4.2-2.1-4.2-4.53c0-2.15,1.45-3.97,4.2-3.97c1.96,0,3.46,0.84,4.2,1.4l1.07-2.48 c-1.31-0.89-3.31-1.73-5.88-1.73c-4.57,0-7.52,3.17-7.52,6.91c0,2.62,0.98,5.23,5.88,7.05c2.75,1.03,4.15,2.19,4.15,4.81 c0,2.43-1.87,4.34-4.67,4.34c-2.24,0-4.02-0.75-4.9-1.49l-1.12,2.71c1.36,1.03,3.74,1.73,6.44,1.73c5.13,0,8.45-3.55,8.45-7.38 C317.18,293.14,315.97,290.53,311.06,288.66"></path> <polygon class="st0" points="339.12,277.88 334.83,277.88 325.86,289.55 325.77,289.55 325.77,266.39 321.75,266.39 321.75,303.04 325.77,303.04 325.77,290.06 325.86,290.06 335.48,303.04 340.15,303.04 329.6,289.64 "></polygon> <path class="st0" d="M351.16,277.41c-6.77,0-9.81,5.56-9.81,13.07c0,7.38,2.99,13.03,9.85,13.03c6.82,0,9.81-5.65,9.81-13.03 C361.01,282.97,358.07,277.41,351.16,277.41 M351.2,300.66c-4.71,0-5.74-5.09-5.74-10.18c0-5.09,0.93-10.46,5.74-10.46 c4.81,0,5.7,5.42,5.7,10.46C356.9,295.52,356.01,300.66,351.2,300.66"></path> </g> </svg> 