<?xml version="1.0" encoding="utf-8"?>
<!-- Generator: Adobe Illustrator 14.0.0, SVG Export Plug-In . SVG Version: 6.00 Build 43363)  -->
<!DOCTYPE svg PUBLIC "-//W3C//DTD SVG 1.1//EN" "http://www.w3.org/Graphics/SVG/1.1/DTD/svg11.dtd">
<svg version="1.1" id="Layer_1" xmlns="http://www.w3.org/2000/svg" xmlns:xlink="http://www.w3.org/1999/xlink" x="0px" y="0px"
	 width="64px" height="64px" viewBox="0 0 64 64" enable-background="new 0 0 64 64" xml:space="preserve">
<path fill="#45070F" d="M60,0H36h-8H4C1.789,0,0,1.789,0,4v56c0,2.211,1.789,4,4,4h56c2.211,0,4-1.789,4-4V4C64,1.789,62.211,0,60,0
	z M40,39.732c1.562,0.273,3.104,0.603,4.605,1.029c-1.345,1.333-2.902,2.443-4.605,3.307V39.732z M17,2h4.372
	C19.456,3.272,17.929,5.08,17,7.211V2z M17,27.816C17.314,27.928,17.647,28,18,28c0,3.932,1.626,7.479,4.236,10.022
	c-1.785,0.37-3.529,0.847-5.236,1.407V27.816z M7,62H4c-1.104,0-2-0.896-2-2v-2v-6c0-1.104,0.447-2.104,1.172-2.828l-0.004-0.004
	c1.225-0.987,2.508-1.902,3.832-2.76V62z M7,44.051c-1.742,1.063-3.414,2.227-5,3.498V12V7V4c0-1.104,0.896-2,2-2h3V44.051z M15,62
	H9V45.186c1.918-1.106,3.921-2.082,6-2.909V62z M15,23v2v15.146c-2.07,0.782-4.078,1.69-6,2.739V2h6V23z M23,62h-6V41.532
	c0.072-0.025,0.142-0.054,0.214-0.078c1.638,1.798,3.598,3.296,5.786,4.405V62z M23,43.554c-1.329-0.776-2.561-1.703-3.648-2.779
	c1.193-0.341,2.416-0.608,3.648-0.848V43.554z M23,35.919c-1.861-2.114-3-4.881-3-7.919v-1c0-0.553-0.447-1-1-1h-1
	c-0.553,0-1-0.447-1-1v-2c0-0.553,0.447-1,1-1h1c0.553,0,1-0.447,1-1v-2c0-1.861,1.277-3.412,3-3.858V35.919z M23,13.09
	c-2.836,0.478-5,2.939-5,5.91v-7c0-3.698,2.014-6.921,5-8.65V13.09z M31,62h-6V46.735c1.881,0.706,3.896,1.137,6,1.238V62z
	 M31,45.95c-2.12-0.114-4.143-0.58-6-1.373v-4.462c1.788,1.037,3.823,1.692,6,1.848V45.95z M31,39.949
	c-2.23-0.185-4.283-0.979-6-2.217V14.906c1.666-0.28,3.102-1.239,4-2.593c0.511,0.77,1.199,1.409,2,1.874V39.949z M31,11.62
	c-0.615-0.703-1-1.612-1-2.62c0-0.553-0.447-1-1-1s-1,0.447-1,1c0,1.861-1.277,3.412-3,3.858V2.459C25.947,2.162,26.955,2,28,2h3
	V11.62z M38,62h-5V47.973c1.736-0.089,3.41-0.403,5-0.909V62z M38,44.929c-1.576,0.568-3.251,0.919-5,1.019v-3.984
	c1.779-0.127,3.467-0.586,5-1.316V44.929z M38,38.381c-1.494,0.866-3.188,1.419-5,1.568V14.906C33.326,14.962,33.658,15,34,15h4
	V38.381z M38,13h-4c-0.348,0-0.679-0.059-1-0.142V2h3c0.686,0,1.354,0.069,2,0.201V13z M46,62h-6V46.307
	c2.246-0.993,4.276-2.387,6-4.093V62z M46,39.125c-1.39-0.423-2.796-0.805-4.235-1.103C44.374,35.479,46,31.932,46,28V39.125z
	 M46,26h-1c-0.553,0-1,0.447-1,1v1c0,3.549-1.551,6.729-4,8.926V15c2.209,0,4,1.791,4,4v2c0,0.553,0.447,1,1,1h1V26z M46,19
	c0-3.313-2.688-6-6-6V2.838c3.53,1.544,6,5.063,6,9.162V19z M46,5.372C45.112,4.035,43.965,2.888,42.628,2H46V5.372z M54,62h-6
	V41.897c2.073,0.77,4.079,1.675,6,2.72V62z M54,42.37c-1.929-0.994-3.93-1.865-6-2.596V27.222c0.609-0.549,1-1.336,1-2.222v-2
	c0-0.886-0.391-1.673-1-2.222V12V2h6V42.37z M62,55v5c0,1.104-0.896,2-2,2h-4V45.77c1.686,1.03,3.3,2.164,4.832,3.398l-0.004,0.004
	C61.553,49.896,62,50.896,62,52V55z M62,7v5v35.549c-1.887-1.513-3.895-2.875-6-4.09V2h4c1.104,0,2,0.896,2,2V7z"/>
</svg>
