<?xml version="1.0" encoding="utf-8"?>
<!-- Generator: Adobe Illustrator 14.0.0, SVG Export Plug-In . SVG Version: 6.00 Build 43363)  -->
<!DOCTYPE svg PUBLIC "-//W3C//DTD SVG 1.1//EN" "http://www.w3.org/Graphics/SVG/1.1/DTD/svg11.dtd">
<svg version="1.1" id="Layer_1" xmlns="http://www.w3.org/2000/svg" xmlns:xlink="http://www.w3.org/1999/xlink" x="0px" y="0px"
	 width="64px" height="64px" viewBox="0 0 64 64" enable-background="new 0 0 64 64" xml:space="preserve">
<g>
	<g>
		<path d="M18,39.999c-1.104,0-2,0.896-2,2v4h32v-4c0-1.104-0.896-2-2-2h-3v-14h3c0.907,0,1.7-0.609,1.933-1.486
			c0.233-0.877-0.153-1.8-0.94-2.25l-14-8c-0.308-0.176-0.65-0.264-0.992-0.264s-0.686,0.088-0.992,0.264l-14,8
			c-0.787,0.45-1.174,1.373-0.94,2.25C16.3,25.39,17.093,25.999,18,25.999h3v14H18z M19,23.999c-0.609,0-0.275-0.414-0.013-0.564
			c0.23-0.131,10.038-5.735,12.471-7.125c0.345-0.198,0.725-0.207,1.047-0.022c2.361,1.349,12.203,6.972,12.5,7.144
			c0.339,0.193,0.651,0.568-0.005,0.568H19z M41.001,25.999v14h-2v-14H41.001z M37.001,25.999v14h-2v-14H37.001z M33.001,25.999v14
			h-2v-14H33.001z M29,25.999v14h-2v-14H29z M25,25.999v14h-2v-14H25z M45.001,41.999c0.553,0,1,0.447,1,1v1H18v-1
			c0-0.553,0.447-1,1-1H45.001z"/>
		<path d="M28.686,6.387l-0.285,1.751c-0.09,0.561,0.142,1.117,0.615,1.459c0.252,0.176,0.548,0.27,0.855,0.27
			c0.257,0,0.511-0.067,0.725-0.188L32.001,8.9l1.416,0.782c0.496,0.269,1.108,0.237,1.58-0.095c0.463-0.333,0.694-0.89,0.604-1.454
			l-0.285-1.747l1.199-1.229c0.388-0.402,0.518-0.982,0.339-1.515c-0.178-0.527-0.63-0.91-1.188-0.999l-1.589-0.242L33.35,0.85
			C33.104,0.333,32.574,0,32.001,0c-0.575,0-1.105,0.335-1.351,0.855l-0.726,1.546l-1.6,0.243c-0.549,0.089-1,0.471-1.179,1
			c-0.18,0.534-0.047,1.116,0.346,1.518L28.686,6.387z M31.283,4.218l0.719-1.532l0.719,1.532l1.67,0.254L33.18,5.713l0.278,1.708
			l-1.457-0.806l-1.458,0.806l0.279-1.708l-1.21-1.241L31.283,4.218z"/>
		<path d="M35.667,56.777l-1.589-0.242l-0.729-1.552c-0.246-0.517-0.776-0.85-1.348-0.85
			c-0.575,0-1.105,0.335-1.351,0.855l-0.726,1.546l-1.595,0.242c-0.552,0.086-1.005,0.47-1.183,1
			c-0.181,0.534-0.048,1.117,0.345,1.519l1.193,1.224l-0.285,1.751c-0.09,0.566,0.145,1.124,0.608,1.453
			C29.263,63.904,29.562,64,29.873,64c0.257,0,0.51-0.067,0.724-0.188l1.405-0.777l1.416,0.782c0.49,0.266,1.113,0.23,1.573-0.092
			c0.467-0.33,0.701-0.888,0.611-1.459l-0.285-1.746l1.199-1.229c0.388-0.403,0.519-0.983,0.34-1.512
			C36.677,57.247,36.223,56.863,35.667,56.777z M33.18,59.846l0.279,1.709l-1.458-0.806l-1.458,0.806l0.279-1.709l-1.21-1.24
			l1.67-0.254l0.719-1.532l0.719,1.532l1.669,0.254L33.18,59.846z"/>
		<path d="M6.35,36.692c0.491,0.267,1.123,0.225,1.566-0.088c0.469-0.327,0.706-0.884,0.618-1.464L8.25,33.395
			l1.198-1.229c0.388-0.403,0.52-0.982,0.342-1.512c-0.178-0.531-0.633-0.914-1.188-1.001l-1.59-0.243l-0.73-1.555
			c-0.252-0.522-0.769-0.847-1.347-0.847c-0.572,0-1.102,0.334-1.351,0.856L2.858,29.41l-1.594,0.243
			c-0.552,0.086-1.006,0.47-1.181,0.991c-0.186,0.536-0.054,1.121,0.343,1.526l1.192,1.224l-0.286,1.757
			c-0.087,0.569,0.15,1.126,0.608,1.445c0.254,0.182,0.553,0.278,0.866,0.278c0.255,0,0.508-0.066,0.722-0.188l1.405-0.777
			L6.35,36.692z M3.476,34.431l0.279-1.71l-1.209-1.239l1.669-0.255l0.719-1.533l0.72,1.533l1.668,0.255l-1.209,1.239l0.279,1.71
			l-1.458-0.806L3.476,34.431z"/>
		<path d="M63.923,30.654c-0.179-0.532-0.633-0.915-1.188-1.001l-1.59-0.243l-0.728-1.551
			c-0.246-0.517-0.776-0.851-1.35-0.851c-0.572,0-1.102,0.334-1.351,0.856l-0.725,1.545l-1.595,0.243
			c-0.553,0.086-1.007,0.47-1.18,0.986c-0.188,0.534-0.058,1.12,0.342,1.531l1.192,1.224l-0.285,1.757
			c-0.087,0.567,0.149,1.124,0.609,1.447c0.254,0.181,0.553,0.276,0.864,0.276c0.257,0,0.51-0.067,0.722-0.188l1.405-0.777
			l1.411,0.779c0.488,0.269,1.125,0.229,1.571-0.085c0.469-0.327,0.706-0.884,0.618-1.464l-0.285-1.746l1.198-1.229
			C63.967,31.766,64.099,31.188,63.923,30.654z M60.246,32.721l0.279,1.71l-1.458-0.806l-1.457,0.806l0.278-1.71l-1.209-1.239
			l1.67-0.255l0.719-1.533l0.719,1.533l1.668,0.255L60.246,32.721z"/>
		<path d="M5.494,20.801l-0.286,1.757c-0.087,0.569,0.15,1.126,0.608,1.445c0.254,0.182,0.553,0.278,0.866,0.278
			c0.255,0,0.508-0.066,0.722-0.188l1.405-0.777l1.416,0.782c0.494,0.268,1.124,0.224,1.566-0.088
			c0.469-0.327,0.706-0.884,0.618-1.463l-0.286-1.747l1.201-1.229c0.387-0.404,0.517-0.983,0.34-1.511
			c-0.178-0.531-0.633-0.915-1.19-1.001l-1.588-0.242l-0.73-1.556c-0.252-0.522-0.769-0.847-1.347-0.847
			c-0.575,0-1.104,0.336-1.351,0.856l-0.726,1.546L5.138,17.06c-0.552,0.086-1.005,0.47-1.18,0.991
			c-0.185,0.534-0.054,1.118,0.343,1.527L5.494,20.801z M8.09,18.634l0.72-1.533l0.719,1.533l1.668,0.254l-1.21,1.239l0.279,1.71
			l-1.457-0.806l-1.458,0.806l0.279-1.71l-1.209-1.239L8.09,18.634z"/>
		<path d="M50.685,19.578l1.193,1.224l-0.284,1.751c-0.089,0.561,0.152,1.132,0.607,1.452
			c0.254,0.181,0.553,0.276,0.864,0.276c0.257,0,0.51-0.067,0.721-0.188l1.407-0.777l1.41,0.779c0.488,0.27,1.126,0.229,1.571-0.085
			c0.469-0.327,0.706-0.884,0.618-1.463l-0.285-1.747l1.2-1.229c0.385-0.402,0.515-0.979,0.34-1.511
			c-0.178-0.531-0.633-0.915-1.188-1.001l-1.59-0.242l-0.728-1.552c-0.246-0.517-0.775-0.851-1.349-0.851s-1.103,0.334-1.352,0.857
			l-0.724,1.545l-1.596,0.242c-0.553,0.086-1.007,0.47-1.18,0.986C50.155,18.578,50.285,19.163,50.685,19.578z M54.476,18.634
			l0.718-1.533l0.719,1.533l1.668,0.254l-1.209,1.239l0.279,1.71l-1.457-0.806l-1.457,0.806l0.278-1.71l-1.209-1.239L54.476,18.634z
			"/>
		<path d="M13.665,44.217c-0.178-0.529-0.63-0.912-1.19-1.002l-1.588-0.242l-0.73-1.555
			c-0.252-0.522-0.769-0.847-1.347-0.847c-0.575,0-1.104,0.336-1.351,0.856l-0.726,1.545l-1.6,0.243
			c-0.549,0.089-1.001,0.472-1.175,0.991c-0.186,0.536-0.054,1.121,0.343,1.526l1.192,1.224l-0.286,1.756
			c-0.087,0.567,0.149,1.123,0.608,1.446c0.254,0.182,0.553,0.278,0.866,0.278c0.255,0,0.508-0.066,0.722-0.188l1.405-0.778
			l1.425,0.788c0.5,0.263,1.117,0.219,1.562-0.096c0.466-0.328,0.702-0.884,0.614-1.461l-0.286-1.746l1.199-1.229
			C13.71,45.325,13.842,44.746,13.665,44.217z M9.987,46.283l0.279,1.709l-1.457-0.806l-1.458,0.807l0.279-1.71l-1.209-1.24
			l1.669-0.254l0.72-1.533l0.719,1.533l1.668,0.254L9.987,46.283z"/>
		<path  d="M58.859,43.215l-1.59-0.242l-0.728-1.551c-0.246-0.517-0.775-0.851-1.349-0.851s-1.103,0.334-1.352,0.857
			l-0.724,1.544l-1.601,0.243c-0.551,0.089-1.003,0.473-1.175,0.986c-0.188,0.534-0.058,1.12,0.342,1.531l1.193,1.224l-0.284,1.751
			c-0.09,0.566,0.145,1.124,0.607,1.453c0.254,0.181,0.553,0.276,0.864,0.276c0.257,0,0.51-0.067,0.722-0.188l1.406-0.778
			l1.419,0.786c0.495,0.264,1.118,0.223,1.566-0.094c0.466-0.328,0.702-0.884,0.614-1.461l-0.285-1.746l1.198-1.229
			c0.386-0.4,0.518-0.979,0.342-1.512C59.87,43.688,59.418,43.304,58.859,43.215z M56.371,46.283l0.279,1.709l-1.457-0.806
			l-1.457,0.806l0.278-1.709l-1.21-1.24l1.671-0.254l0.718-1.532l0.719,1.532l1.669,0.254L56.371,46.283z"/>
		<path  d="M15.181,10.145l-0.286,1.757c-0.087,0.569,0.15,1.126,0.604,1.442c0.254,0.185,0.555,0.281,0.868,0.281
			c0.255,0,0.507-0.065,0.724-0.188l1.405-0.777l1.42,0.785c0.496,0.265,1.123,0.22,1.563-0.091
			c0.464-0.324,0.706-0.896,0.617-1.463l-0.285-1.747l1.199-1.228c0.389-0.403,0.52-0.983,0.341-1.515
			c-0.178-0.527-0.63-0.91-1.189-0.999l-1.589-0.242l-0.729-1.556c-0.248-0.514-0.776-0.846-1.347-0.846
			c-0.575,0-1.105,0.335-1.351,0.855L16.42,6.161l-1.6,0.243c-0.549,0.089-0.999,0.471-1.175,0.99
			c-0.186,0.536-0.054,1.122,0.343,1.527L15.181,10.145z M17.778,7.978l0.719-1.533l0.719,1.533l1.669,0.254l-1.21,1.239l0.279,1.71
			l-1.457-0.806l-1.458,0.806l0.279-1.71l-1.209-1.239L17.778,7.978z"/>
		<path  d="M42.19,10.145l-0.284,1.752c-0.089,0.561,0.152,1.132,0.606,1.451c0.254,0.182,0.554,0.277,0.865,0.277
			c0.256,0,0.508-0.066,0.723-0.188l1.405-0.777l1.405,0.777c0.486,0.269,1.104,0.243,1.58-0.085
			c0.466-0.328,0.702-0.884,0.614-1.461l-0.285-1.747l1.198-1.228c0.386-0.401,0.518-0.979,0.341-1.515
			c-0.178-0.527-0.63-0.91-1.188-0.999l-1.59-0.242l-0.728-1.552c-0.246-0.517-0.775-0.85-1.349-0.85s-1.103,0.333-1.352,0.856
			l-0.724,1.545L41.83,6.404c-0.55,0.089-1.001,0.471-1.175,0.985c-0.188,0.534-0.058,1.121,0.342,1.532L42.19,10.145z
			 M44.788,7.978l0.718-1.533l0.719,1.533l1.668,0.254l-1.209,1.239l0.279,1.71l-1.457-0.806l-1.457,0.806l0.278-1.71l-1.209-1.239
			L44.788,7.978z"/>
		<path  d="M22.162,52.902l-1.589-0.242l-0.73-1.558c-0.249-0.513-0.777-0.844-1.346-0.844
			c-0.574,0-1.104,0.334-1.351,0.855L16.42,52.66l-1.6,0.243c-0.549,0.089-1.001,0.472-1.174,0.989
			c-0.187,0.536-0.056,1.122,0.342,1.528l1.192,1.224L14.895,58.4c-0.087,0.567,0.149,1.123,0.608,1.446
			c0.253,0.182,0.553,0.278,0.864,0.278c0.257,0,0.51-0.067,0.724-0.188l1.405-0.777l1.42,0.785
			c0.496,0.266,1.121,0.222,1.566-0.093c0.468-0.33,0.703-0.888,0.613-1.461l-0.285-1.746l1.199-1.229
			c0.389-0.403,0.52-0.984,0.342-1.512C23.174,53.375,22.722,52.992,22.162,52.902z M19.674,55.971l0.279,1.709l-1.457-0.806
			l-1.458,0.806l0.279-1.709l-1.209-1.24l1.669-0.254l0.719-1.533l0.719,1.533l1.669,0.254L19.674,55.971z"/>
		<path  d="M49.172,52.902l-1.59-0.242l-0.729-1.554c-0.247-0.515-0.776-0.848-1.348-0.848s-1.101,0.333-1.352,0.856
			l-0.724,1.545l-1.601,0.243c-0.551,0.089-1.003,0.473-1.174,0.984c-0.187,0.526-0.054,1.127,0.341,1.533l1.193,1.224l-0.284,1.751
			c-0.09,0.566,0.145,1.124,0.61,1.454c0.253,0.18,0.551,0.275,0.861,0.275c0.257,0,0.511-0.067,0.723-0.188l1.405-0.777
			l1.405,0.777c0.488,0.27,1.104,0.245,1.583-0.087c0.464-0.328,0.699-0.884,0.611-1.459l-0.285-1.746l1.198-1.229
			c0.387-0.401,0.519-0.979,0.342-1.512C50.183,53.375,49.73,52.991,49.172,52.902z M46.684,55.971l0.279,1.709l-1.457-0.806
			l-1.457,0.806l0.278-1.709l-1.21-1.24l1.671-0.254l0.718-1.533l0.719,1.533l1.669,0.254L46.684,55.971z"/>
	</g>
</g>
</svg>
