<?xml version="1.0" encoding="utf-8"?>
<!-- Generator: Adobe Illustrator 14.0.0, SVG Export Plug-In . SVG Version: 6.00 Build 43363)  -->
<!DOCTYPE svg PUBLIC "-//W3C//DTD SVG 1.1//EN" "http://www.w3.org/Graphics/SVG/1.1/DTD/svg11.dtd">
<svg version="1.1" id="Layer_1" xmlns="http://www.w3.org/2000/svg" xmlns:xlink="http://www.w3.org/1999/xlink" x="0px" y="0px"
	 width="222px" height="60px" viewBox="0 0 222 60" enable-background="new 0 0 222 60" xml:space="preserve">
<g>
	
		<line fill="none" stroke="#2CABE1" stroke-width="3.0485" stroke-miterlimit="10" x1="13.126" y1="30.001" x2="13.126" y2="30.001"/>
	<path fill="#00AEEF" d="M13.126,16.882c-1.876,0-3.659,0.398-5.271,1.11V9.404c0-2.908,2.363-5.272,5.271-5.272
		c2.904,0,5.265,2.36,5.27,5.264h-0.004v5.088h4.077V9.404h0.003c0-5.154-4.193-9.348-9.346-9.348c-5.154,0-9.347,4.193-9.347,9.348
		v11.399C1.444,23.175,0,26.425,0,30.008c0,7.236,5.887,13.125,13.126,13.125c1.874,0,3.657-0.399,5.27-1.109v8.574
		c0,2.908-2.364,5.273-5.27,5.273c-2.908,0-5.271-2.365-5.271-5.273h0.002V45.51H3.779v5.088c0,5.153,4.193,9.346,9.347,9.346
		c5.153,0,9.346-4.192,9.346-9.346V39.209c2.334-2.371,3.776-5.621,3.776-9.201C26.249,22.771,20.362,16.882,13.126,16.882
		 M13.126,39.057c-4.99,0-9.049-4.061-9.049-9.049c0-3.004,1.476-5.663,3.733-7.31h0.044v-0.034
		c1.486-1.069,3.304-1.707,5.271-1.707c4.988,0,9.049,4.062,9.049,9.051C22.175,34.996,18.114,39.057,13.126,39.057"/>
	<path fill="#003863" d="M15.339,27.674c0-1.224-0.991-2.213-2.213-2.213c-1.224,0-2.216,0.989-2.216,2.213
		c0,0.871,0.504,1.618,1.232,1.982l-0.877,4.886h3.723l-0.881-4.886C14.835,29.292,15.339,28.545,15.339,27.674"/>
	<g>
		<g>
			<path fill="#1B325F" d="M53.492,17.578c0,1.49-0.223,2.8-0.666,3.93c-0.444,1.13-1.05,2.076-1.82,2.838
				c-0.771,0.763-1.688,1.335-2.75,1.721c-1.063,0.385-2.206,0.577-3.427,0.577c-1.189,0-2.311-0.192-3.366-0.577
				c-1.054-0.386-1.976-0.958-2.762-1.721c-0.787-0.762-1.406-1.708-1.858-2.838c-0.452-1.13-0.678-2.439-0.678-3.93
				s0.234-2.8,0.703-3.931c0.468-1.13,1.101-2.08,1.896-2.85c0.795-0.771,1.716-1.349,2.762-1.733s2.147-0.577,3.303-0.577
				c1.188,0,2.31,0.192,3.365,0.577c1.054,0.385,1.975,0.963,2.762,1.733c0.787,0.77,1.406,1.72,1.858,2.85
				C53.265,14.778,53.492,16.088,53.492,17.578z M40.207,17.578c0,0.854,0.104,1.624,0.314,2.311s0.511,1.276,0.904,1.771
				c0.394,0.494,0.875,0.875,1.444,1.143c0.569,0.268,1.222,0.401,1.959,0.401c0.719,0,1.368-0.134,1.945-0.401
				c0.578-0.268,1.063-0.648,1.457-1.143c0.393-0.494,0.694-1.084,0.904-1.771c0.209-0.687,0.314-1.457,0.314-2.311
				s-0.105-1.629-0.314-2.323c-0.209-0.694-0.511-1.289-0.904-1.782c-0.394-0.494-0.879-0.876-1.457-1.144
				c-0.578-0.268-1.227-0.401-1.945-0.401c-0.737,0-1.391,0.138-1.959,0.414c-0.569,0.276-1.051,0.661-1.444,1.155
				c-0.393,0.494-0.694,1.089-0.904,1.783S40.207,16.741,40.207,17.578z"/>
			<path fill="#1B325F" d="M69.338,8.889v3.34h-5.249v14.063h-3.917V12.229h-5.249v-3.34H69.338z"/>
			<path fill="#1B325F" d="M76.726,26.292c-0.693-1.462-1.376-2.979-2.05-4.551s-1.314-3.127-1.921-4.666s-1.164-3.012-1.672-4.419
				c-0.509-1.407-0.948-2.663-1.318-3.768h4.319c0.326,1.008,0.688,2.093,1.088,3.254c0.397,1.162,0.804,2.32,1.218,3.474
				c0.415,1.154,0.81,2.26,1.189,3.316c0.379,1.058,0.742,1.97,1.089,2.738c0.327-0.764,0.685-1.674,1.072-2.73
				c0.387-1.057,0.789-2.162,1.202-3.316c0.414-1.153,0.819-2.312,1.218-3.474c0.399-1.161,0.762-2.249,1.089-3.262h4.171
				c-0.39,1.11-0.838,2.367-1.346,3.771c-0.508,1.404-1.063,2.876-1.665,4.417c-0.603,1.54-1.239,3.097-1.908,4.671
				c-0.669,1.574-1.35,3.089-2.04,4.544H76.726z"/>
			<path fill="#1B325F" d="M105.903,17.578c0,1.49-0.222,2.8-0.666,3.93c-0.444,1.13-1.051,2.076-1.821,2.838
				c-0.77,0.763-1.687,1.335-2.75,1.721c-1.063,0.385-2.207,0.577-3.428,0.577c-1.189,0-2.31-0.192-3.365-0.577
				c-1.055-0.386-1.976-0.958-2.762-1.721c-0.788-0.762-1.406-1.708-1.859-2.838c-0.452-1.13-0.678-2.439-0.678-3.93
				s0.234-2.8,0.704-3.931c0.468-1.13,1.101-2.08,1.896-2.85c0.795-0.771,1.716-1.349,2.763-1.733
				c1.046-0.385,2.147-0.577,3.302-0.577c1.188,0,2.31,0.192,3.365,0.577c1.055,0.385,1.975,0.963,2.763,1.733
				c0.787,0.77,1.407,1.72,1.858,2.85C105.677,14.778,105.903,16.088,105.903,17.578z M92.618,17.578
				c0,0.854,0.104,1.624,0.314,2.311s0.511,1.276,0.904,1.771c0.393,0.494,0.875,0.875,1.444,1.143s1.222,0.401,1.959,0.401
				c0.72,0,1.369-0.134,1.946-0.401s1.063-0.648,1.457-1.143c0.393-0.494,0.695-1.084,0.904-1.771
				c0.209-0.687,0.314-1.457,0.314-2.311s-0.105-1.629-0.314-2.323c-0.209-0.694-0.511-1.289-0.904-1.782
				c-0.394-0.494-0.879-0.876-1.457-1.144s-1.227-0.401-1.946-0.401c-0.737,0-1.39,0.138-1.959,0.414s-1.051,0.661-1.444,1.155
				c-0.394,0.494-0.695,1.089-0.904,1.783S92.618,16.741,92.618,17.578z"/>
			<path fill="#1B325F" d="M113.939,8.688c2.611,0,4.612,0.465,6.001,1.394c1.391,0.93,2.086,2.374,2.086,4.332
				c0,1.223-0.281,2.215-0.842,2.977s-1.369,1.36-2.424,1.795c0.352,0.436,0.72,0.935,1.105,1.495
				c0.385,0.561,0.766,1.146,1.143,1.758s0.74,1.247,1.092,1.908c0.352,0.662,0.679,1.311,0.979,1.946h-4.379
				c-0.319-0.569-0.644-1.146-0.972-1.732c-0.327-0.586-0.662-1.155-1.008-1.708c-0.344-0.553-0.686-1.075-1.021-1.569
				c-0.337-0.494-0.673-0.941-1.009-1.344h-1.934v6.354h-3.917V9.14c0.854-0.167,1.737-0.284,2.65-0.352
				C112.403,8.722,113.219,8.688,113.939,8.688z M114.165,12.027c-0.284,0-0.539,0.009-0.766,0.025s-0.439,0.034-0.641,0.051v4.721
				h1.105c1.473,0,2.527-0.184,3.164-0.553c0.637-0.367,0.954-0.995,0.954-1.883c0-0.854-0.323-1.461-0.966-1.821
				C116.371,12.208,115.421,12.027,114.165,12.027z"/>
			<path fill="#1B325F" d="M125.265,26.292V8.889h11.754v3.29h-7.836v3.415h6.957v3.215h-6.957v4.193h8.412v3.29H125.265z"/>
			<path fill="#1B325F" d="M151.835,26.292c-1.122-1.992-2.336-3.959-3.642-5.901s-2.696-3.775-4.169-5.5v11.401h-3.867V8.889h3.188
				c0.554,0.553,1.164,1.23,1.834,2.034s1.352,1.662,2.047,2.574c0.694,0.912,1.385,1.858,2.071,2.838
				c0.688,0.979,1.332,1.921,1.934,2.825V8.889h3.893v17.403H151.835z"/>
			<path fill="#1B325F" d="M170.492,26.292c-0.194-0.604-0.401-1.226-0.625-1.863c-0.223-0.637-0.444-1.271-0.665-1.903h-6.798
				c-0.22,0.635-0.44,1.271-0.661,1.909c-0.221,0.638-0.426,1.257-0.617,1.857h-4.067c0.655-1.875,1.276-3.607,1.864-5.198
				c0.587-1.591,1.162-3.089,1.725-4.495s1.117-2.741,1.662-4.006c0.547-1.264,1.113-2.499,1.701-3.704h3.714
				c0.571,1.205,1.136,2.44,1.69,3.704c0.555,1.265,1.114,2.6,1.678,4.006c0.564,1.406,1.14,2.904,1.729,4.495
				c0.588,1.591,1.211,3.323,1.867,5.198H170.492z M168.786,4.318l-4.131,3.49l-1.721-1.531l3.555-4.068L168.786,4.318z
				 M165.785,12.832c-0.087,0.252-0.216,0.597-0.384,1.031s-0.359,0.938-0.574,1.508s-0.456,1.198-0.722,1.883
				c-0.265,0.687-0.536,1.405-0.81,2.157h4.977c-0.267-0.755-0.524-1.476-0.773-2.163c-0.25-0.688-0.487-1.316-0.712-1.887
				s-0.422-1.073-0.591-1.508C166.026,13.419,165.89,13.079,165.785,12.832z"/>
			<path fill="#1B325F" d="M42.141,32.797c2.595,0,4.587,0.456,5.977,1.368c1.39,0.913,2.084,2.407,2.084,4.483
				c0,2.093-0.703,3.604-2.109,4.532s-3.416,1.394-6.027,1.394h-1.23V50.4h-3.917V33.248c0.854-0.167,1.758-0.284,2.712-0.351
				C40.583,32.83,41.42,32.797,42.141,32.797z M42.392,36.137c-0.285,0-0.565,0.009-0.842,0.025
				c-0.276,0.017-0.514,0.033-0.715,0.05v5.022h1.23c1.356,0,2.377-0.184,3.063-0.553c0.687-0.367,1.03-1.055,1.03-2.059
				c0-0.485-0.088-0.888-0.264-1.206c-0.175-0.316-0.427-0.573-0.753-0.766c-0.327-0.192-0.724-0.327-1.193-0.401
				C43.479,36.174,42.96,36.137,42.392,36.137z"/>
			<path fill="#1B325F" d="M57.861,32.797c2.611,0,4.612,0.465,6.001,1.394s2.084,2.374,2.084,4.331c0,1.223-0.28,2.215-0.841,2.977
				c-0.562,0.762-1.369,1.361-2.424,1.796c0.352,0.436,0.72,0.934,1.105,1.494c0.385,0.562,0.765,1.147,1.142,1.759
				c0.376,0.61,0.741,1.246,1.093,1.908c0.351,0.661,0.678,1.31,0.979,1.945h-4.379c-0.32-0.568-0.644-1.146-0.971-1.732
				s-0.663-1.155-1.008-1.708c-0.344-0.552-0.685-1.075-1.021-1.569c-0.336-0.494-0.673-0.941-1.008-1.344h-1.934V50.4h-3.917
				V33.248c0.854-0.167,1.737-0.284,2.649-0.351C56.325,32.83,57.141,32.797,57.861,32.797z M58.087,36.137
				c-0.285,0-0.54,0.009-0.766,0.025s-0.439,0.033-0.641,0.05v4.722h1.105c1.473,0,2.528-0.185,3.164-0.553s0.955-0.996,0.955-1.884
				c0-0.854-0.323-1.46-0.967-1.82C60.292,36.316,59.343,36.137,58.087,36.137z"/>
			<path fill="#1B325F" d="M85.762,41.688c0,1.489-0.222,2.799-0.666,3.93c-0.444,1.129-1.051,2.076-1.821,2.838
				s-1.687,1.334-2.75,1.72c-1.063,0.386-2.206,0.577-3.428,0.577c-1.189,0-2.31-0.191-3.366-0.577
				c-1.055-0.386-1.976-0.958-2.762-1.72c-0.788-0.762-1.407-1.709-1.859-2.838c-0.452-1.131-0.678-2.44-0.678-3.93
				c0-1.49,0.235-2.801,0.704-3.931c0.468-1.13,1.101-2.081,1.896-2.851c0.795-0.77,1.716-1.348,2.763-1.732
				c1.046-0.385,2.147-0.578,3.302-0.578c1.188,0,2.311,0.193,3.365,0.578s1.976,0.963,2.763,1.732s1.406,1.721,1.858,2.851
				C85.536,38.887,85.762,40.197,85.762,41.688z M72.478,41.688c0,0.854,0.104,1.623,0.313,2.31s0.511,1.276,0.904,1.771
				c0.394,0.494,0.875,0.875,1.443,1.143c0.569,0.268,1.223,0.402,1.959,0.402c0.72,0,1.369-0.135,1.946-0.402
				c0.579-0.268,1.063-0.648,1.457-1.143c0.393-0.494,0.694-1.084,0.904-1.771c0.209-0.687,0.314-1.456,0.314-2.31
				c0-0.854-0.105-1.629-0.314-2.324c-0.209-0.693-0.511-1.289-0.904-1.783c-0.394-0.493-0.878-0.874-1.457-1.143
				c-0.578-0.268-1.227-0.4-1.946-0.4c-0.737,0-1.39,0.137-1.959,0.414c-0.568,0.275-1.049,0.661-1.443,1.154
				C73.302,38.1,73,38.694,72.791,39.389C72.582,40.084,72.478,40.85,72.478,41.688z"/>
			<path fill="#1B325F" d="M98.96,50.4c-0.353-0.565-0.769-1.178-1.248-1.836c-0.479-0.657-0.994-1.32-1.547-1.988
				s-1.131-1.309-1.735-1.922c-0.604-0.613-1.208-1.154-1.813-1.625V50.4H88.7V32.998h3.917v6.541
				c1.008-1.059,2.031-2.165,3.07-3.32c1.039-1.154,1.999-2.229,2.878-3.221h4.649c-1.185,1.41-2.376,2.766-3.575,4.068
				c-1.198,1.301-2.459,2.611-3.784,3.93c1.392,1.162,2.736,2.539,4.03,4.133c1.292,1.594,2.536,3.351,3.73,5.271H98.96z"/>
			<path fill="#1B325F" d="M112.357,50.752c-1.223,0-2.277-0.172-3.165-0.514c-0.888-0.344-1.62-0.82-2.197-1.433
				c-0.578-0.61-1.004-1.339-1.281-2.185c-0.276-0.845-0.415-1.778-0.415-2.799V32.998h3.918v10.496
				c0,0.704,0.079,1.302,0.239,1.797c0.159,0.493,0.376,0.895,0.653,1.205c0.276,0.31,0.61,0.531,1.004,0.665
				c0.393,0.135,0.825,0.201,1.293,0.201c0.954,0,1.729-0.293,2.322-0.879c0.595-0.586,0.893-1.583,0.893-2.989V32.998h3.917v10.824
				c0,1.021-0.142,1.958-0.427,2.812c-0.285,0.854-0.721,1.587-1.306,2.198c-0.587,0.61-1.331,1.084-2.235,1.418
				C114.667,50.585,113.596,50.752,112.357,50.752z"/>
			<path fill="#1B325F" d="M128.078,32.797c2.61,0,4.611,0.465,6.001,1.394s2.084,2.374,2.084,4.331
				c0,1.223-0.279,2.215-0.841,2.977s-1.368,1.361-2.423,1.796c0.352,0.436,0.719,0.934,1.104,1.494
				c0.386,0.562,0.766,1.147,1.143,1.759c0.376,0.61,0.741,1.246,1.093,1.908c0.352,0.661,0.678,1.31,0.979,1.945h-4.377
				c-0.321-0.568-0.645-1.146-0.973-1.732c-0.327-0.586-0.664-1.155-1.008-1.708c-0.345-0.552-0.686-1.075-1.021-1.569
				s-0.672-0.941-1.009-1.344h-1.933V50.4h-3.918V33.248c0.854-0.167,1.737-0.284,2.649-0.351
				C126.541,32.83,127.357,32.797,128.078,32.797z M128.304,36.137c-0.285,0-0.54,0.009-0.766,0.025
				c-0.228,0.017-0.439,0.033-0.641,0.05v4.722h1.104c1.473,0,2.528-0.185,3.164-0.553s0.954-0.996,0.954-1.884
				c0-0.854-0.322-1.46-0.967-1.82S129.559,36.137,128.304,36.137z"/>
			<path fill="#1B325F" d="M151.079,50.4c-0.193-0.604-0.402-1.225-0.625-1.862s-0.445-1.272-0.666-1.904h-6.797
				c-0.221,0.635-0.44,1.271-0.661,1.909s-0.427,1.258-0.617,1.857h-4.067c0.654-1.874,1.275-3.607,1.863-5.197
				c0.588-1.591,1.162-3.09,1.726-4.496c0.563-1.406,1.116-2.741,1.662-4.006c0.546-1.264,1.113-2.498,1.701-3.703h3.714
				c0.572,1.205,1.135,2.439,1.69,3.703c0.555,1.265,1.114,2.6,1.678,4.006s1.14,2.905,1.728,4.496
				c0.59,1.59,1.211,3.323,1.867,5.197H151.079z M146.372,36.94c-0.088,0.253-0.216,0.597-0.384,1.031
				c-0.169,0.436-0.36,0.938-0.573,1.508c-0.217,0.571-0.457,1.198-0.723,1.884s-0.536,1.404-0.811,2.156h4.977
				c-0.266-0.754-0.523-1.476-0.773-2.162c-0.249-0.688-0.486-1.316-0.711-1.888c-0.225-0.57-0.422-1.073-0.592-1.508
				C146.613,37.527,146.476,37.188,146.372,36.94z"/>
			<path fill="#1B325F" d="M170.092,32.998v3.339h-5.249V50.4h-3.917V36.337h-5.249v-3.339H170.092z"/>
			<path fill="#1B325F" d="M179.082,50.752c-1.222,0-2.276-0.172-3.164-0.514c-0.888-0.344-1.62-0.82-2.197-1.433
				c-0.578-0.61-1.005-1.339-1.28-2.185c-0.277-0.845-0.415-1.778-0.415-2.799V32.998h3.917v10.496c0,0.704,0.08,1.302,0.239,1.797
				c0.159,0.493,0.377,0.895,0.653,1.205c0.275,0.31,0.61,0.531,1.004,0.665c0.393,0.135,0.824,0.201,1.294,0.201
				c0.954,0,1.729-0.293,2.323-0.879c0.594-0.586,0.891-1.583,0.891-2.989V32.998h3.918v10.824c0,1.021-0.143,1.958-0.428,2.812
				c-0.284,0.854-0.719,1.587-1.305,2.198c-0.587,0.61-1.332,1.084-2.235,1.418C181.393,50.585,180.32,50.752,179.082,50.752z
				 M182.548,28.427l-4.131,3.491l-1.721-1.532l3.554-4.068L182.548,28.427z"/>
			<path fill="#1B325F" d="M194.804,32.797c2.611,0,4.611,0.465,6.001,1.394s2.085,2.374,2.085,4.331
				c0,1.223-0.281,2.215-0.842,2.977s-1.369,1.361-2.423,1.796c0.352,0.436,0.72,0.934,1.104,1.494
				c0.385,0.562,0.766,1.147,1.143,1.759c0.377,0.61,0.741,1.246,1.093,1.908c0.352,0.661,0.679,1.31,0.979,1.945h-4.379
				c-0.32-0.568-0.645-1.146-0.972-1.732s-0.663-1.155-1.008-1.708c-0.345-0.552-0.686-1.075-1.021-1.569
				c-0.337-0.494-0.674-0.941-1.009-1.344h-1.935V50.4h-3.917V33.248c0.854-0.167,1.737-0.284,2.649-0.351
				C193.267,32.83,194.083,32.797,194.804,32.797z M195.028,36.137c-0.283,0-0.539,0.009-0.766,0.025
				c-0.226,0.017-0.439,0.033-0.641,0.05v4.722h1.105c1.473,0,2.528-0.185,3.164-0.553c0.637-0.368,0.955-0.996,0.955-1.884
				c0-0.854-0.323-1.46-0.967-1.82C197.235,36.316,196.284,36.137,195.028,36.137z"/>
			<path fill="#1B325F" d="M217.804,50.4c-0.193-0.604-0.4-1.225-0.625-1.862c-0.221-0.638-0.444-1.272-0.665-1.904h-6.797
				c-0.22,0.635-0.44,1.271-0.661,1.909c-0.22,0.639-0.426,1.258-0.617,1.857h-4.068c0.655-1.874,1.277-3.607,1.865-5.197
				c0.587-1.591,1.162-3.09,1.725-4.496s1.117-2.741,1.662-4.006c0.547-1.264,1.113-2.498,1.7-3.703h3.715
				c0.571,1.205,1.135,2.439,1.69,3.703c0.555,1.265,1.114,2.6,1.678,4.006s1.14,2.905,1.729,4.496
				c0.588,1.59,1.211,3.323,1.866,5.197H217.804z M213.098,36.94c-0.087,0.253-0.216,0.597-0.384,1.031
				c-0.168,0.436-0.359,0.938-0.574,1.508c-0.216,0.571-0.456,1.198-0.723,1.884c-0.265,0.686-0.535,1.404-0.809,2.156h4.977
				c-0.268-0.754-0.524-1.476-0.773-2.162c-0.25-0.688-0.488-1.316-0.713-1.888c-0.225-0.57-0.422-1.073-0.59-1.508
				C213.339,37.527,213.202,37.188,213.098,36.94z"/>
		</g>
	</g>
</g>
</svg>
